<svg width="44" height="44" viewBox="0 0 44 44" fill="none" xmlns="http://www.w3.org/2000/svg">
<path d="M3.66699 11.0001H7.33366V18.3334H3.66699V11.0001ZM3.66699 18.3334H7.33366V25.6667H3.66699V18.3334ZM3.66699 25.6667H7.33366V33.0001H3.66699V25.6667ZM36.667 11.0001H40.3337V18.3334H36.667V11.0001ZM36.667 18.3334H40.3337V25.6667H36.667V18.3334ZM36.667 25.6667H40.3337V33.0001H36.667V25.6667ZM7.33366 7.33341H14.667V11.0001H7.33366V7.33341ZM7.33366 22.0001H14.667V18.3334H7.33366V22.0001ZM7.33366 29.3334H14.667V25.6667H7.33366V29.3334ZM7.33366 36.6667H14.667V33.0001H7.33366V36.6667ZM29.3337 7.33341H36.667V11.0001H29.3337V7.33341ZM29.3337 22.0001H36.667V18.3334H29.3337V22.0001ZM29.3337 29.3334H36.667V25.6667H29.3337V29.3334ZM29.3337 36.6667H36.667V33.0001H29.3337V36.6667ZM14.667 3.66675H29.3337V7.33341H14.667V3.66675ZM14.667 25.6667H29.3337V22.0001H14.667V25.6667ZM14.667 33.0001H29.3337V29.3334H14.667V33.0001ZM14.667 40.3334H29.3337V36.6667H14.667V40.3334Z" fill="black"/>
</svg>
