<svg width="41" height="41" viewBox="0 0 41 41" fill="none" xmlns="http://www.w3.org/2000/svg">
<path d="M40.3333 14.6667V25.6667H38.5V29.3333H36.6667V33H34.8333V34.8333H33V36.6667H31.1667V38.5H27.5V40.3333H25.6667V31.1667H23.8333V29.3333H25.6667V27.5H29.3333V25.6667H31.1667V23.8333H33V14.6667H31.1667V9.16667H27.5V11H25.6667V12.8333H23.8333V11H16.5V12.8333H14.6667V11H12.8333V9.16667H9.16667V14.6667H7.33333V23.8333H9.16667V25.6667H11V27.5H14.6667V31.1667H11V29.3333H9.16667V27.5H5.5V29.3333H7.33333V33H9.16667V34.8333H14.6667V40.3333H12.8333V38.5H9.16667V36.6667H7.33333V34.8333H5.5V33H3.66667V29.3333H1.83333V25.6667H0V14.6667H1.83333V11H3.66667V7.33333H5.5V5.5H7.33333V3.66667H11V1.83333H14.6667V0H25.6667V1.83333H29.3333V3.66667H33V5.5H34.8333V7.33333H36.6667V11H38.5V14.6667H40.3333Z" fill="black"/>
</svg>
