<svg width="41" height="37" viewBox="0 0 41 37" fill="none" xmlns="http://www.w3.org/2000/svg">
<path d="M22 36.6667H18.3333V33H22V36.6667ZM18.3333 33H14.6667V29.3333H18.3333V33ZM25.6667 33H22V29.3333H25.6667V33ZM14.6667 29.3333H11V25.6667H14.6667V29.3333ZM29.3333 29.3333H25.6667V25.6667H29.3333V29.3333ZM11 25.6667H7.33333V22H11V25.6667ZM33 25.6667H29.3333V22H33V25.6667ZM7.33333 22H3.66667V18.3333H7.33333V22ZM36.6667 22H33V18.3333H36.6667V22ZM3.66667 18.3333H0V7.33333H3.66667V18.3333ZM40.3333 18.3333H36.6667V7.33333H40.3333V18.3333ZM22 11H18.3333V7.33333H22V11ZM7.33333 7.33333H3.66667V3.66667H7.33333V7.33333ZM18.3333 7.33333H14.6667V3.66667H18.3333V7.33333ZM25.6667 7.33333H22V3.66667H25.6667V7.33333ZM36.6667 7.33333H33V3.66667H36.6667V7.33333ZM14.6667 3.66667H7.33333V0H14.6667V3.66667ZM33 3.66667H25.6667V0H33V3.66667Z" fill="black"/>
</svg>
