<?xml version="1.0" standalone="no"?>
<!DOCTYPE svg PUBLIC "-//W3C//DTD SVG 20010904//EN"
 "http://www.w3.org/TR/2001/REC-SVG-20010904/DTD/svg10.dtd">
<svg version="1.0" xmlns="http://www.w3.org/2000/svg"
 width="320.000000pt" height="222.000000pt" viewBox="0 0 320.000000 222.000000"
 preserveAspectRatio="xMidYMid meet">

<g transform="translate(0.000000,222.000000) scale(0.100000,-0.100000)"
fill="#000000" stroke="none">
<path d="M1015 2189 c4 -12 4 -66 0 -120 l-7 -99 -98 0 c-74 0 -101 -4 -110
-15 -7 -8 -17 -54 -22 -102 -6 -49 -15 -94 -20 -100 -7 -9 -41 -13 -104 -13
l-93 0 -7 -47 c-5 -35 -2 -61 10 -96 10 -27 15 -52 11 -55 -4 -4 -55 -8 -113
-8 -59 -1 -112 -2 -119 -3 -7 0 -14 -36 -18 -96 -8 -108 -17 -121 -71 -110
-22 4 -48 1 -66 -6 -28 -12 -58 -54 -58 -83 0 -9 -14 -17 -39 -21 -63 -11 -74
-24 -79 -97 -5 -84 7 -108 54 -108 48 0 74 -16 74 -45 0 -45 33 -66 101 -64
71 3 79 -4 79 -72 0 -25 3 -68 7 -94 l6 -47 101 3 c114 4 151 -4 140 -29 -19
-47 -26 -92 -20 -135 l7 -47 92 0 c51 0 97 -4 103 -8 6 -4 16 -49 21 -99 6
-51 16 -100 23 -108 10 -11 35 -15 110 -15 l98 0 7 -89 c4 -49 4 -103 0 -120
l-7 -31 585 0 584 0 7 46 c3 26 6 66 6 89 0 23 3 57 6 74 l7 31 97 0 c73 0
101 4 110 15 6 8 14 52 17 97 8 120 6 118 118 118 51 0 97 4 100 10 13 20 6
128 -9 159 -16 30 -16 31 6 36 13 3 70 6 128 8 l105 2 7 95 c9 108 19 124 70
109 56 -16 118 26 118 79 0 21 25 32 71 32 43 0 59 28 59 102 0 77 -14 95 -81
106 -39 7 -44 11 -50 40 -11 54 -24 62 -100 62 -78 0 -74 -6 -84 115 -4 44
-11 85 -17 92 -7 8 -39 10 -111 6 -86 -5 -104 -3 -115 10 -10 12 -11 21 -2 37
12 23 16 133 5 150 -3 6 -46 10 -94 10 -111 0 -117 5 -123 117 -3 46 -10 89
-18 97 -10 13 -34 16 -110 16 -112 0 -110 -3 -110 105 0 33 -3 77 -6 98 l-7
37 -584 0 -584 0 6 -21z m921 -225 c121 0 228 -3 236 -7 12 -4 16 -27 20 -99
2 -51 7 -99 11 -105 6 -9 39 -13 108 -13 l99 0 0 -43 c0 -24 5 -70 12 -101 15
-79 34 -90 132 -81 71 7 75 6 89 -16 18 -28 40 -138 35 -177 l-3 -27 98 4 c66
2 97 0 98 -8 0 -6 1 -87 1 -181 0 -93 -1 -175 -1 -181 -1 -8 -28 -9 -95 -4
l-94 7 -6 -54 c-12 -94 -27 -157 -39 -165 -7 -4 -48 -6 -93 -5 -61 3 -85 0
-96 -11 -8 -8 -23 -60 -32 -116 l-18 -101 -93 0 c-60 0 -96 -4 -101 -12 -4 -6
-10 -53 -13 -104 -3 -51 -9 -95 -13 -99 -4 -4 -112 -6 -241 -6 -173 1 -236 -1
-239 -10 -3 -9 -13 -9 -42 1 -21 7 -55 9 -79 6 -23 -3 -49 -6 -57 -5 -8 1
-121 3 -250 5 -138 3 -239 9 -245 15 -5 5 -12 54 -15 107 l-5 97 -108 3 -109
3 6 25 c8 32 -12 153 -31 182 -14 22 -20 23 -97 20 -57 -2 -88 1 -98 10 -11 8
-20 47 -28 113 l-12 100 -97 -3 -96 -3 0 185 0 185 98 -1 97 0 0 45 c0 61 24
161 41 173 8 5 50 7 94 4 45 -2 87 -1 93 3 7 4 21 55 30 112 l17 104 97 3
c112 3 103 -6 113 125 6 71 10 89 26 97 11 7 135 10 320 10 166 -1 304 2 307
5 4 3 16 3 27 -2 11 -4 119 -8 241 -9z"/>
<path d="M1461 1841 c-13 -13 -21 -34 -21 -57 0 -61 -13 -74 -78 -75 -31 0
-73 -5 -92 -12 -34 -12 -35 -13 -40 -77 l-5 -65 -72 -5 c-40 -3 -77 -10 -83
-16 -6 -6 -15 -37 -19 -68 -4 -31 -12 -61 -18 -67 -6 -6 -32 -13 -59 -17 l-49
-7 -3 -50 c-4 -91 -6 -94 -65 -97 l-52 -3 -3 -111 -3 -112 37 -6 c20 -4 38 -5
41 -2 3 3 14 1 24 -5 16 -8 19 -21 19 -73 0 -75 12 -90 63 -81 46 9 67 -13 67
-70 0 -66 23 -88 101 -93 76 -5 88 -16 82 -75 -7 -56 6 -66 99 -79 40 -6 78
-15 85 -20 7 -5 15 -31 19 -56 3 -26 11 -53 16 -59 15 -18 293 -18 305 0 4 6
10 37 13 67 l5 55 75 7 c112 11 120 17 120 81 0 29 5 58 12 65 7 7 33 12 60
12 85 0 118 30 118 110 0 47 20 62 72 53 45 -7 52 4 58 87 4 47 9 65 20 67 8
1 32 4 53 8 l37 6 0 108 0 108 -46 6 c-26 2 -50 11 -55 18 -5 8 -9 39 -9 70 0
30 -5 60 -12 67 -7 7 -34 12 -60 12 -52 0 -49 -4 -63 85 -10 62 -28 75 -100
75 -38 0 -67 5 -73 13 -6 7 -10 34 -9 61 2 60 -12 72 -99 81 -35 4 -70 12 -79
19 -8 6 -19 33 -24 59 -5 27 -13 53 -17 57 -5 5 -68 12 -140 16 -125 7 -132 6
-153 -15z m176 -372 c96 2 103 -6 103 -114 0 -112 -8 -118 -149 -113 -65 2
-105 8 -113 16 -9 9 -13 44 -13 109 0 95 1 97 25 104 14 4 36 5 50 2 14 -3 57
-5 97 -4z m-180 -241 c7 -10 10 -182 4 -230 -1 -5 -46 -8 -101 -8 l-100 0 0
125 0 125 94 0 c63 0 97 -4 103 -12z m488 -118 l0 -125 -76 -3 c-42 -1 -88 2
-102 7 -27 10 -27 11 -27 119 0 72 4 112 12 120 9 9 41 12 103 10 l90 -3 0
-125z m-224 -140 c17 -9 19 -22 19 -104 0 -72 -4 -96 -16 -106 -10 -9 -50 -14
-116 -14 -134 -1 -137 1 -140 117 -4 114 0 117 135 117 54 0 107 -5 118 -10z"/>
</g>
</svg>
