<?xml version="1.0" standalone="no"?>
<!DOCTYPE svg PUBLIC "-//W3C//DTD SVG 20010904//EN"
 "http://www.w3.org/TR/2001/REC-SVG-20010904/DTD/svg10.dtd">
<svg version="1.0" xmlns="http://www.w3.org/2000/svg"
 width="48.000000pt" height="133.000000pt" viewBox="0 0 48.000000 133.000000"
 preserveAspectRatio="xMidYMid meet">

<g transform="translate(0.000000,133.000000) scale(0.100000,-0.100000)"
fill="#000000" stroke="none">
<path d="M133 1304 l-23 -25 28 -25 27 -24 -27 -25 c-16 -13 -28 -27 -28 -30
0 -3 12 -17 28 -30 l27 -25 -26 -23 c-31 -28 -44 -57 -25 -57 7 0 20 -8 30
-18 15 -18 15 -20 -10 -46 l-27 -27 28 -29 28 -30 -26 -20 c-34 -27 -34 -35 0
-66 l28 -26 -28 -23 c-15 -13 -27 -27 -27 -30 0 -3 12 -17 28 -30 l27 -25 -26
-23 c-31 -28 -44 -57 -25 -57 7 0 21 -9 32 -21 19 -21 18 -21 -9 -44 -15 -13
-27 -27 -27 -30 0 -3 12 -17 27 -30 l28 -23 -28 -26 -28 -26 28 -25 28 -25
-27 -25 c-16 -13 -28 -27 -28 -30 0 -3 12 -17 27 -30 l28 -25 -27 -25 c-35
-30 -35 -40 -1 -69 l27 -23 -27 -25 c-15 -14 -27 -28 -27 -32 0 -12 54 -55 70
-56 8 0 21 9 28 20 7 11 20 20 30 20 10 0 24 -9 32 -20 20 -27 36 -25 73 10
l32 30 -30 24 -30 24 27 29 c16 16 28 32 28 36 0 3 -12 18 -27 32 l-28 26 30
24 29 24 -29 31 -30 32 30 24 30 24 -30 24 -30 24 30 32 29 31 -29 24 -30 23
29 31 30 31 -30 31 -29 31 30 23 29 24 -29 31 -30 32 28 22 c33 27 34 39 2 60
-32 21 -31 33 3 63 l27 24 -27 20 c-35 26 -35 39 -3 63 32 24 31 35 -2 62
l-28 22 30 32 29 31 -29 24 -30 25 29 26 29 26 -29 24 c-36 29 -56 30 -79 4
-22 -24 -9 -27 16 -4 17 15 20 15 43 -4 24 -19 25 -20 7 -36 -25 -23 -32 -21
-89 24 -58 47 -79 49 -109 14z m73 -5 c18 -20 18 -21 -1 -35 -24 -18 -34 -18
-57 2 -17 16 -17 18 4 35 27 24 31 24 54 -2z m59 -49 c18 -20 18 -21 -2 -41
-17 -17 -24 -19 -42 -10 -26 14 -27 39 -3 57 23 18 26 17 47 -6z m-55 -57 c20
-17 20 -18 -6 -40 l-26 -22 -28 22 -28 22 22 17 c27 22 41 22 66 1z m124 -2
c16 -18 16 -20 -9 -39 l-26 -21 -25 21 c-22 20 -23 23 -7 40 21 23 45 23 67
-1z m-69 -51 c18 -20 18 -21 -2 -41 -18 -18 -23 -19 -42 -8 -26 17 -27 37 -3
55 23 18 26 17 47 -6z m-49 -61 c18 -20 18 -21 -6 -40 -33 -24 -42 -24 -69 5
l-22 23 23 16 c31 22 51 21 74 -4z m120 0 c18 -20 18 -21 -6 -40 -31 -23 -33
-23 -61 0 -23 19 -24 19 -5 40 24 27 48 27 72 0z m-70 -53 c18 -18 18 -24 -1
-42 -30 -31 -83 8 -56 40 17 20 38 20 57 2z m-56 -57 l24 -21 -24 -19 c-31
-23 -33 -23 -61 1 l-24 20 25 20 c31 24 29 24 60 -1z m120 1 l25 -20 -25 -20
c-31 -24 -29 -24 -60 -1 l-24 19 24 21 c31 25 29 25 60 1z m-50 -75 c0 -3 -8
-15 -18 -25 -17 -18 -20 -18 -40 -4 -12 8 -22 21 -22 29 0 8 10 21 22 29 20
14 23 14 40 -4 10 -10 18 -22 18 -25z m-71 -35 c20 -17 21 -23 11 -36 -27 -32
-46 -35 -75 -10 l-27 23 29 21 c34 26 33 26 62 2z m121 0 l25 -19 -27 -28 -28
-28 -27 28 -28 28 25 19 c14 11 27 20 30 20 3 0 16 -9 30 -20z m-67 -101 c-17
-17 -24 -19 -42 -10 -27 15 -27 36 1 55 21 15 24 14 42 -4 20 -20 20 -20 -1
-41z m-58 -15 c32 -21 31 -26 -3 -46 -26 -15 -29 -15 -52 2 -24 18 -24 19 -6
39 23 25 29 26 61 5z m131 -5 c18 -20 18 -21 -6 -40 -31 -23 -29 -23 -60 2
l-25 21 24 19 c30 24 43 24 67 -2z m-72 -90 c-19 -18 -24 -19 -43 -8 -27 18
-27 34 1 53 21 15 24 14 42 -4 20 -20 20 -20 0 -41z m-54 -19 l25 -20 -25 -20
c-31 -24 -39 -24 -69 0 l-23 20 23 20 c30 24 38 24 69 0z m121 0 l24 -20 -24
-20 c-13 -11 -27 -20 -31 -20 -4 0 -18 9 -31 20 l-24 20 24 20 c13 11 27 20
31 20 4 0 18 -9 31 -20z m-66 -60 c17 -19 17 -21 0 -40 -14 -15 -22 -17 -37
-9 -26 14 -33 35 -16 53 18 21 32 20 53 -4z m-55 -51 l24 -21 -24 -19 c-32
-24 -43 -24 -66 2 -18 20 -18 21 6 40 31 23 29 23 60 -2z m140 -20 c0 -5 -11
-16 -25 -25 -23 -15 -27 -15 -50 0 -32 21 -31 28 2 48 24 14 29 14 50 1 13 -8
23 -19 23 -24z m-85 -39 c17 -19 17 -21 0 -40 -14 -15 -22 -17 -37 -9 -28 15
-33 38 -12 54 25 19 28 19 49 -5z m-61 -49 c33 -37 -15 -71 -54 -39 l-24 20
24 19 c31 23 33 23 54 0z m121 -1 c18 -20 18 -21 -3 -43 l-22 -21 -22 21 c-21
22 -21 23 -3 43 10 11 21 20 25 20 4 0 15 -9 25 -20z m-60 -90 c-21 -24 -32
-25 -51 -6 -20 20 -18 32 8 50 21 15 24 14 42 -4 19 -19 19 -20 1 -40z m-57
-16 c22 -15 22 -17 6 -35 -20 -23 -42 -24 -68 -4 -19 14 -19 15 -1 35 22 24
33 25 63 4z m124 -1 c17 -15 17 -17 2 -35 -22 -23 -46 -23 -68 1 -16 18 -16
20 6 35 28 20 37 20 60 -1z m-67 -53 c18 -20 18 -21 -2 -41 -17 -17 -24 -19
-42 -10 -26 14 -27 39 -3 57 23 18 26 17 47 -6z m-55 -60 l25 -20 -25 -20
c-32 -25 -42 -25 -69 4 l-22 23 23 16 c30 21 38 20 68 -3z m126 -1 c19 -21 18
-21 -5 -40 -29 -24 -33 -24 -62 1 l-24 20 24 20 c30 25 43 25 67 -1z m-71 -59
c18 -20 18 -21 -3 -42 -21 -21 -22 -21 -42 -3 -25 22 -26 41 -2 54 24 14 26
14 47 -9z m-56 -54 l22 -23 -25 -17 c-32 -21 -39 -20 -61 4 -18 19 -17 21 5
40 29 25 32 25 59 -4z m120 0 l23 -24 -26 -17 c-24 -16 -28 -16 -52 0 l-26 17
23 24 c28 30 30 30 58 0z"/>
<path d="M19 1313 c0 -5 -2 -17 -4 -28 -5 -26 5 -65 16 -65 5 0 9 23 9 50 0
28 -4 50 -10 50 -5 0 -10 -3 -11 -7z"/>
<path d="M430 1210 c0 -22 5 -40 10 -40 6 0 10 18 10 40 0 22 -4 40 -10 40 -5
0 -10 -18 -10 -40z"/>
<path d="M20 1095 c0 -33 4 -45 15 -45 11 0 15 12 15 45 0 33 -4 45 -15 45
-11 0 -15 -12 -15 -45z"/>
<path d="M432 1019 c2 -19 8 -35 13 -37 15 -3 12 61 -3 66 -10 3 -13 -5 -10
-29z"/>
<path d="M18 905 c-3 -40 5 -66 17 -54 10 11 9 93 -1 96 -8 3 -13 -13 -16 -42z"/>
<path d="M429 845 c-3 -2 -3 -22 -1 -44 5 -48 22 -45 22 4 0 31 -11 51 -21 40z"/>
<path d="M24 755 c-13 -34 -10 -100 5 -100 10 0 14 15 14 53 0 56 -8 76 -19
47z"/>
<path d="M438 668 c-2 -7 -1 -29 2 -48 7 -35 13 -30 23 17 5 25 -18 53 -25 31z"/>
<path d="M19 555 c-1 -19 -2 -43 -3 -52 0 -10 6 -19 14 -21 12 -2 14 8 12 53
-4 61 -21 76 -23 20z"/>
<path d="M444 489 c-15 -19 -6 -79 12 -79 15 0 16 15 5 64 -5 24 -8 26 -17 15z"/>
<path d="M26 363 c-12 -12 -6 -81 9 -93 13 -11 15 -6 15 38 0 48 -9 69 -24 55z"/>
<path d="M432 258 c3 -43 27 -67 26 -26 0 40 -8 68 -19 68 -6 0 -9 -18 -7 -42z"/>
<path d="M31 110 c1 -34 6 -59 11 -58 5 2 9 7 9 11 -1 4 -1 30 -1 57 0 28 -5
50 -10 50 -6 0 -10 -24 -9 -60z"/>
<path d="M444 61 c2 -23 7 -41 12 -41 14 0 11 73 -4 78 -9 3 -11 -8 -8 -37z"/>
</g>
</svg>
