<?xml version="1.0" standalone="no"?>
<!DOCTYPE svg PUBLIC "-//W3C//DTD SVG 20010904//EN"
 "http://www.w3.org/TR/2001/REC-SVG-20010904/DTD/svg10.dtd">
<svg version="1.0" xmlns="http://www.w3.org/2000/svg"
 width="133.000000pt" height="48.000000pt" viewBox="0 0 133.000000 48.000000"
 preserveAspectRatio="xMidYMid meet">

<g transform="translate(0.000000,48.000000) scale(0.100000,-0.100000)"
fill="#000000" stroke="none">
<path d="M486 462 c-19 -18 -1 -27 49 -24 59 4 76 21 23 23 -18 0 -41 2 -50 4
-9 2 -19 0 -22 -3z"/>
<path d="M654 459 c-10 -17 2 -22 56 -21 67 1 65 1 54 12 -15 15 -102 22 -110
9z"/>
<path d="M853 457 c-8 -12 -2 -15 46 -18 27 -3 46 0 48 7 5 14 -86 24 -94 11z"/>
<path d="M1238 463 c-36 -9 -17 -23 32 -23 28 0 50 5 50 10 0 6 -3 10 -7 11
-5 0 -19 2 -33 4 -14 1 -33 1 -42 -2z"/>
<path d="M270 445 c-12 -15 -8 -16 41 -13 63 4 72 22 13 26 -28 2 -45 -2 -54
-13z"/>
<path d="M1050 445 c0 -11 12 -15 45 -15 33 0 45 4 45 15 0 11 -12 15 -45 15
-33 0 -45 -4 -45 -15z"/>
<path d="M52 438 c2 -5 7 -9 11 -9 4 1 30 1 57 1 28 0 50 5 50 10 0 6 -24 10
-60 9 -34 -1 -59 -6 -58 -11z"/>
<path d="M590 366 c0 -7 -9 -21 -21 -32 -21 -19 -21 -18 -44 9 -13 15 -27 27
-30 27 -3 0 -17 -12 -30 -27 l-23 -28 -26 28 -26 28 -25 -28 -25 -28 -25 28
c-13 15 -27 27 -30 27 -3 0 -17 -12 -30 -27 l-25 -28 -25 28 c-30 34 -40 34
-69 0 l-23 -27 -25 27 c-14 15 -28 27 -32 27 -12 0 -55 -54 -56 -70 0 -8 9
-21 20 -28 26 -16 26 -44 0 -62 -27 -20 -25 -35 11 -72 l30 -32 24 29 23 30
29 -27 c16 -16 32 -28 36 -28 3 0 18 12 32 28 l26 27 24 -30 24 -29 31 29 32
30 24 -30 24 -30 24 30 24 30 32 -30 31 -29 24 29 23 30 31 -29 31 -30 31 30
31 29 23 -30 24 -29 31 29 32 30 22 -27 c27 -34 39 -35 60 -3 21 32 33 31 63
-2 l24 -28 20 28 c26 34 39 34 63 2 24 -32 35 -31 62 3 l22 27 32 -30 31 -29
24 29 25 30 26 -29 26 -29 24 29 c29 36 30 56 4 79 -24 22 -27 9 -4 -16 15
-17 15 -20 -4 -43 -19 -24 -20 -25 -36 -7 -23 25 -21 32 24 89 47 58 49 76 15
108 l-26 24 -24 -28 -25 -27 -25 28 c-13 15 -27 27 -30 27 -3 0 -17 -12 -30
-27 l-25 -28 -23 26 c-28 31 -57 44 -57 25 0 -7 -8 -20 -18 -30 -18 -15 -20
-15 -46 10 l-27 27 -29 -28 -30 -28 -20 26 c-27 34 -35 34 -66 0 l-26 -28 -23
28 c-13 15 -27 27 -30 27 -3 0 -17 -12 -30 -27 l-25 -28 -23 26 c-28 31 -57
44 -57 25z m-380 -61 c0 -5 -9 -21 -20 -35 l-20 -25 -20 25 c-25 32 -25 39 2
67 l22 24 18 -23 c10 -13 18 -27 18 -33z m424 28 c18 -24 18 -28 3 -52 -9 -14
-21 -26 -27 -26 -6 0 -18 12 -27 26 -15 24 -15 28 3 52 10 15 21 26 24 26 3 0
14 -11 24 -26z m246 -33 c-1 -3 -10 -16 -20 -29 -17 -20 -23 -21 -36 -11 -31
27 -34 46 -11 74 l22 27 22 -28 c13 -15 23 -30 23 -33z m220 -1 c0 -9 -9 -24
-21 -35 -20 -18 -21 -18 -40 6 -24 32 -24 39 3 67 l22 24 18 -23 c10 -13 18
-30 18 -39z m110 4 c0 -7 -8 -22 -17 -33 -17 -20 -18 -20 -40 6 l-22 26 22 28
22 28 17 -22 c10 -11 18 -27 18 -33z m-1129 25 c24 -27 24 -30 -5 -57 l-23
-22 -17 25 c-20 31 -20 35 1 58 20 23 22 23 44 -4z m221 5 c22 -20 23 -32 2
-61 -15 -22 -17 -22 -35 -6 -22 20 -24 37 -7 64 15 24 17 24 40 3z m113 -9
c16 -25 16 -27 -5 -48 l-21 -21 -19 23 c-19 23 -19 25 -2 48 22 30 26 30 47
-2z m109 1 c16 -24 16 -27 -1 -50 -21 -29 -29 -28 -51 7 -15 25 -15 28 3 47
23 27 29 26 49 -4z m218 8 c22 -20 22 -32 -1 -62 l-18 -23 -21 27 c-20 25 -20
28 -5 51 18 29 21 29 45 7z m232 -8 c16 -24 16 -27 -1 -50 -23 -31 -27 -31
-48 1 -15 23 -15 27 0 50 20 30 29 30 49 -1z m346 -25 c0 -4 -9 -15 -20 -25
-20 -18 -21 -18 -35 1 -19 25 -18 34 1 56 16 17 18 17 35 -4 11 -11 19 -24 19
-28z m-1179 -41 c9 -18 7 -25 -10 -42 l-21 -21 -22 21 c-21 22 -21 23 -3 43
23 26 41 25 56 -1z m118 0 c11 -19 10 -24 -8 -43 l-21 -20 -21 21 c-17 17 -19
24 -10 42 15 27 42 27 60 0z m105 -1 c15 -21 14 -24 -4 -42 -19 -19 -20 -19
-40 -1 -23 21 -25 30 -7 50 17 20 34 18 51 -7z m105 1 c11 -19 10 -24 -8 -43
-21 -20 -21 -20 -41 0 -18 18 -19 21 -4 42 19 28 35 28 53 1z m107 7 c19 -19
18 -30 -6 -51 -20 -18 -21 -18 -40 1 -18 18 -19 21 -4 42 18 26 30 28 50 8z
m118 -8 c15 -21 14 -24 -4 -42 -20 -20 -20 -20 -41 0 -18 19 -19 24 -8 43 18
27 34 27 53 -1z m110 0 c15 -21 14 -24 -4 -42 -20 -20 -20 -20 -41 1 -17 17
-19 24 -10 42 15 27 36 27 55 -1z m120 0 c14 -20 14 -23 -4 -40 -10 -10 -22
-18 -25 -18 -3 0 -15 8 -25 18 -18 17 -18 20 -4 40 8 12 21 22 29 22 8 0 21
-10 29 -22z m104 10 c7 -7 12 -18 12 -26 0 -14 -23 -42 -35 -42 -12 0 -35 28
-35 42 0 17 20 38 35 38 6 0 16 -5 23 -12z m121 -9 c11 -19 10 -24 -8 -43
l-21 -20 -21 20 c-18 19 -19 24 -8 43 8 11 21 21 29 21 8 0 21 -10 29 -21z
m110 0 c11 -19 10 -24 -8 -43 l-21 -20 -21 21 c-17 17 -19 24 -10 42 15 27 42
27 60 0z m-1181 -105 l-26 -26 -17 26 c-16 25 -16 27 0 52 l17 26 26 -26 27
-26 -27 -26z m122 43 c13 -23 13 -28 -4 -46 -25 -27 -32 -26 -52 4 -15 23 -15
27 0 51 20 30 35 27 56 -9z m116 -9 c3 -12 -1 -27 -12 -39 -16 -18 -18 -18
-36 -3 -22 21 -23 42 -1 66 18 20 38 11 49 -24z m206 15 c14 -24 14 -29 1 -50
-19 -29 -29 -29 -49 2 -15 23 -15 27 0 50 21 32 28 31 48 -2z m114 2 c15 -23
15 -27 0 -50 -21 -31 -31 -31 -52 0 -15 23 -15 27 0 50 9 14 21 25 26 25 5 0
17 -11 26 -25z m114 -8 c13 -23 13 -28 -4 -46 -24 -27 -30 -26 -50 4 -16 24
-16 27 1 50 21 29 33 27 53 -8z m114 8 c15 -23 15 -27 0 -50 -20 -31 -25 -31
-54 0 l-23 25 23 25 c13 14 27 25 31 25 4 0 14 -11 23 -25z m109 0 c17 -23 17
-26 1 -50 -20 -31 -28 -31 -48 0 -15 23 -15 27 0 50 20 31 24 31 47 0z m109 8
c22 -20 23 -41 1 -65 -21 -24 -28 -23 -48 8 -15 23 -15 27 0 50 18 28 23 29
47 7z m128 -33 c0 -9 -8 -25 -19 -34 -18 -16 -20 -16 -39 9 l-21 26 21 25 c20
22 23 23 40 7 10 -9 18 -24 18 -33z m-795 20 c18 -20 18 -21 -3 -43 l-22 -21
-22 21 c-21 22 -21 23 -3 43 10 11 21 20 25 20 4 0 15 -9 25 -20z"/>
<path d="M797 52 c-20 -2 -35 -7 -32 -13 8 -12 72 -12 80 0 8 14 -4 17 -48 13z"/>
<path d="M217 43 c-13 -13 -7 -22 16 -21 39 0 67 8 67 18 0 11 -73 14 -83 3z"/>
<path d="M438 43 c-17 -3 -28 -11 -28 -20 0 -12 7 -14 31 -9 17 3 38 6 46 6
13 0 13 3 3 15 -7 8 -15 14 -19 14 -3 -1 -18 -4 -33 -6z"/>
<path d="M620 40 c-22 -4 -29 -9 -20 -12 35 -14 60 -15 70 -3 14 17 -5 23 -50
15z"/>
<path d="M974 38 c-3 -4 1 -11 10 -14 21 -8 61 -1 59 11 -4 12 -62 15 -69 3z"/>
<path d="M1170 40 c0 -5 18 -10 40 -10 22 0 40 5 40 10 0 6 -18 10 -40 10 -22
0 -40 -4 -40 -10z"/>
<path d="M13 27 c-2 -4 2 -10 11 -13 23 -9 69 0 74 13 4 14 -76 14 -85 0z"/>
</g>
</svg>
