<svg width="810" height="86" viewBox="0 0 810 86" fill="none" xmlns="http://www.w3.org/2000/svg">
<path d="M4.31958 5.5H804.32V80.5H4.31958V5.5Z" fill="#FFF8ED"/>
<path d="M139.727 10.9121C140.81 10.8982 145.165 10.9321 147.051 10.9262C144.913 11.0738 135.822 10.9628 139.727 10.9121ZM333.123 0.197079C331.559 0.233559 329.995 0.27004 328.43 0.30652C332.876 0.330223 338.851 0.303448 342.977 0.338076C343.651 0.343891 341.901 0.449514 343.497 0.45423C345.094 0.458917 344.787 0.314573 347.109 0.299134C349.714 0.282254 361.643 0.382814 365.774 0.380375C381.225 0.370631 396.809 0.288198 412.291 0.348147C396.308 0.454937 412.414 0.563623 416.89 0.517343C417.883 0.506627 417.724 0.238281 433.76 0.305848C443.951 0.348725 434.539 0.732363 451.544 0.540171C438.467 0.271789 451.327 0.290599 461.578 0.281677C463.345 0.280097 477.617 0.320419 483.922 0.308534C486.079 0.3044 489.365 0.16384 492.226 0.160151C494.195 0.157718 495.684 0.234563 498.608 0.23065C512.238 0.213329 525.643 0.207354 539.297 0.233335C531.318 0.594542 545.56 0.387277 546.2 0.404546C549.453 0.502616 534.74 0.530531 540.559 0.59187C548.69 0.580679 556.821 0.569489 564.952 0.558299C558.278 0.51395 573.786 0.254129 576.641 0.372318C575.384 0.053143 613.7 0.650115 619.533 0.543528C620.747 0.521014 612.795 0.363266 631.242 0.435431C633.239 0.443449 632.484 0.539748 633.532 0.530771C634.159 0.525373 637.957 0.2193 642.003 0.388432C643.481 0.450162 634.028 0.651185 654.787 0.570385C646.52 0.258862 683.572 0.401676 690.389 0.479744C689.027 0.437892 687.665 0.396041 686.303 0.35419C693.042 0.46709 694.258 0.361174 695.776 0.366947C701.894 0.390131 710.305 0.49687 716.004 0.487129C722.673 0.475922 722.695 0.282186 730.47 0.357547C728.625 0.3148 726.781 0.272054 724.936 0.229307C730.305 0.239602 735.675 0.249897 741.044 0.260192C728.61 0.516646 743.727 0.272427 744.723 0.266906C746.311 0.257573 744.029 0.362564 746.685 0.34949C746.96 0.347338 746.563 0.248468 750.657 0.237364C759.212 0.214501 757.86 0.33881 761.452 0.337404C761.781 0.336763 760.629 0.247693 766.833 0.226621C786.55 0.15954 766.735 0.294879 765.978 0.307191C764.985 0.323429 771.745 0.695657 754.997 0.56367C760.62 0.605689 761.186 0.770405 761.819 0.774494C762.38 0.777855 772.123 0.754653 772.661 0.74898C777.451 0.693046 773.236 0.580484 774.169 0.560313C774.933 0.544052 786.672 0.690742 789.423 0.352175C795.04 0.664463 786.192 0.635852 776.773 0.683853C775.399 0.747936 785.742 0.81025 786.286 0.810079C799.628 0.809509 792.241 0.552634 795.158 0.388432C796.69 0.302517 802.126 0.477767 797.107 0.247435C809.217 0.223122 801.873 0.356594 802.655 0.376346C803.002 0.38489 803.615 0.385197 804.32 0.3816L809.406 0.349631L809.438 5.5C809.447 7.18923 809.478 9.40889 809.471 9.78322C809.458 10.5616 809.379 7.85544 809.351 10.9248C809.346 11.435 809.484 16.3806 809.549 10.0035C809.53 18.5236 809.647 17.8217 809.411 20.7114C809.857 26.5796 809.147 24.9695 809.122 27.2803C809.056 33.4251 809.407 31.6422 809.424 31.9667C809.533 34.2026 809.413 51.2127 809.463 55.4252C809.211 53.7633 809.461 41.9404 809.412 39.2966C809.249 30.4831 809.286 51.7191 808.969 45.3182C809.056 48.0018 809.143 50.6855 809.23 53.3691C809.026 58.2894 808.937 51.309 809.012 64.551C809.187 66.7165 808.984 55.1887 809.122 57.5014C809.204 58.8646 809.221 66.5428 809.264 66.6939C809.316 66.8453 809.254 59.9056 809.334 60.9995C809.505 63.3874 809.342 88.6991 809.249 69.4309C809.251 74.1051 808.994 76.8087 808.996 80.5L809.026 85.1472L804.32 85.1768C803.767 85.1772 803.192 85.1835 802.585 85.1973C801.458 85.2231 803.123 85.305 804.32 85.393L809.243 85.362L809.213 80.5C809.288 79.4756 809.368 78.7942 809.42 80.5L809.452 85.5685L804.32 85.6007C802.688 85.6512 798.874 85.6769 791.089 85.6505C790.547 85.4896 801.259 85.603 801.537 85.5908C801.927 85.5729 799.99 85.2099 799.654 85.1919C798.468 85.1329 772.492 85.3274 767.003 85.1449C769.176 85.3548 747.374 85.1824 745 85.2463C744.367 85.264 746.73 85.3925 746.055 85.4061C741.839 85.4871 730.436 85.2576 725.146 85.2517C719.226 85.245 719.976 85.356 719.645 85.3558C717.04 85.3496 719.122 85.2743 717.529 85.2745C715.124 85.2749 698.592 85.2595 697.762 85.2752C697.519 85.2801 700.218 85.4069 696.614 85.431C695.99 85.4351 696.386 85.2848 685.713 85.3497C672.859 85.4278 694.638 85.5367 689.297 85.6942C681.041 85.47 681.309 85.6921 679.07 85.6747C678.295 85.6683 672.525 85.4794 666.259 85.4914C670.757 85.4607 675.254 85.4301 679.751 85.3994C675.33 85.3663 666.744 85.4073 663.102 85.3699C661.325 85.3516 662.789 85.1965 658.929 85.2007C658.11 85.2024 654.86 85.5805 664.971 85.4108C665.779 85.5458 660.968 85.4579 658.736 85.4961C658.398 85.502 657.067 85.7276 654.216 85.5874C653.532 85.5529 660.983 84.8951 641.766 85.3712C641.147 85.3866 643.299 85.4689 642.694 85.486C642.28 85.4976 637.375 85.4643 636.833 85.4759C636.278 85.4885 638.648 85.5784 637.988 85.5961C634.604 85.6873 630.163 85.3306 637.14 85.3578C634.808 85.3137 632.476 85.2696 630.144 85.2255C632.64 85.4944 626.481 85.3012 623.254 85.3094C602.574 85.3624 616.422 85.5372 612.867 85.6277C607.148 85.7729 611.516 85.3129 603.027 85.4511C602.241 85.464 612.503 85.6593 592.466 85.5491C595.423 85.5415 598.38 85.5339 601.338 85.5263C599.633 85.2663 590.659 85.5441 589.969 85.5478C582.101 85.5835 587.42 85.4897 575.736 85.6237C574.693 85.6357 572.42 85.5715 570.189 85.6035C560.94 85.7354 582.393 85.6835 582.98 85.7888C583.257 85.8404 560.186 85.8274 559.394 85.8029C556.031 85.6943 569.853 85.7551 567.218 85.6203C566.257 85.5724 533.374 85.6707 526.777 85.6183C519.164 85.5572 515.737 85.2047 515.688 85.6008C513.54 85.212 511.642 85.4773 510.668 85.4746C498.896 85.4386 498.874 85.4347 488.778 85.4719C486.549 85.48 484.667 85.362 483.878 85.3819C483.42 85.394 484.277 85.5202 482.029 85.5592C478.906 85.6125 460.139 85.4826 458.744 85.4128C457.349 85.343 466.67 85.3826 464.999 85.2678C458.253 85.2562 451.783 85.2846 444.992 85.2725C442.171 85.2671 443.621 85.1868 442.402 85.1852C441.883 85.1842 432.143 85.255 432.555 85.2846C433.522 85.3535 463.6 85.3072 455.68 85.4477C454.152 85.4749 448.753 85.2898 449.612 85.5149C422.74 85.4639 395.868 85.4128 368.995 85.3618C384.435 85.1935 401.81 85.344 417.982 85.3282C420.199 85.3263 427.692 85.348 426.781 85.2342C413.029 85.2048 395.932 85.2641 382.727 85.1899C382.305 85.1875 383.856 85.0853 382.274 85.0691C379.315 85.0388 369.681 85.2037 368.061 85.161C367.784 85.1511 373.266 85.0164 371.599 84.9308C367.319 84.711 366.233 85.1977 362.553 85.1919C359.708 85.1873 340.586 84.952 335.824 85.1006C330.76 85.2591 349.916 85.1926 348.501 85.3222C335.54 85.4524 322.416 85.3134 310.169 85.3296C309.953 85.33 311.827 85.4315 309.094 85.4457C304.339 85.4705 303.091 85.3264 300.776 85.3034C298.28 85.2789 289.453 85.2995 288.272 85.247C288.122 85.2401 289.911 85.0973 290.182 85.0932C294.027 85.0344 295.393 85.2198 295.743 85.2222C297.057 85.2292 298.349 85.1582 299.548 85.1624C301.522 85.1694 302.609 85.2351 305.215 85.241C307.014 85.2452 305.278 85.119 307.011 85.1248C307.647 85.1274 314.509 85.4155 315.149 85.1214C315.347 85.0287 259.234 84.9096 253.625 84.9838C258.436 85.0192 263.247 85.0545 268.058 85.0899C258.289 85.0038 246.553 85.2388 245.721 84.8911C209.492 84.8627 173.263 84.8343 137.034 84.8059C130.565 84.7763 134.112 84.5529 123.469 84.6179C126.219 84.689 128.969 84.7602 131.72 84.8314C126.265 84.7815 102.093 84.6839 98.1808 84.73C97.6743 84.736 96.971 84.9382 90.9309 84.9556C85.5717 84.9709 84.7106 84.8195 81.8453 84.7904C79.4398 84.7665 76.738 84.8062 76.0241 84.7978C75.476 84.7911 75.2593 84.6985 73.9412 84.6823C69.7797 84.6324 73.1525 84.8932 69.0212 84.5937C70.027 84.5823 71.0329 84.5709 72.0387 84.5595C67.0162 84.5161 60.1542 84.3801 67.5526 84.3131C68.8245 84.3015 67.732 84.3911 68.6807 84.3909C105.83 84.3743 76.165 84.2001 63.1466 84.3392C59.803 84.2065 41.0652 84.2875 40.4424 84.2614C39.5765 84.2235 42.7831 84.1173 38.5799 84.0257C37.6956 84.0063 12.642 84.0807 21.6635 83.9042C23.5252 83.8678 35.5367 83.906 38.433 83.9008C31.6198 83.6194 15.6489 84.0226 13.8529 84.0123C6.60844 83.9684 27.7705 83.7683 11.4496 83.7356C-1.09999 83.7105 10.682 83.8985 5.85542 83.9787C5.51098 83.9844 4.98115 83.9861 4.31958 83.9851L0.856486 84.0069L0.834443 80.5C0.840794 75.9516 0.96886 65.1701 0.734803 65.5067C0.706173 60.6317 0.848134 63.4849 0.858343 62.8831C0.867319 62.2946 0.78706 52.7098 0.843572 49.5984C0.850599 49.221 0.989952 50.4091 1.00135 50.019C1.02088 49.26 0.993019 40.0163 0.981211 39.6449C0.973009 39.4086 0.851005 41.6123 0.821415 40.7063C0.787298 39.6507 0.816008 30.7557 0.781131 30.2655C0.7284 29.5726 0.763139 40.5536 0.626706 38.7236C0.661058 33.6621 0.570028 25.4153 0.460196 22.0743C0.491599 22.8932 0.496108 27.8009 0.485038 29.5044C0.285222 28.7025 0.287944 18.1646 0.446096 21.7672C0.361161 19.4776 0.316101 21.0407 0.235944 19.7512C0.21564 19.413 0.211457 16.1592 0.176859 15.5321C0.169967 15.4505 0.0945759 18.8078 0.0539913 18.1356C-0.0193472 16.9185 -0.00284863 7.0535 0.0163922 6.24615C0.0709162 3.97423 0.13689 12.0173 0.221173 12.6882C0.234116 12.7835 0.39928 5.94252 0.413868 5.83894C0.570374 5.43892 0.457587 13.0513 0.598506 12.1809C0.628273 10.2983 0.658038 8.41577 0.687804 6.53321C0.830507 13.7947 0.757126 27.2287 0.919441 30.6927C0.87114 19.9266 0.876852 8.65934 1.24239 8.6828C1.39634 8.69043 1.48658 13.3352 1.52573 13.1555C1.66578 12.4707 1.51363 6.02261 1.52103 5.78553C1.52956 5.5895 1.53787 5.50003 1.54596 5.5C1.54596 5.5 1.54597 5.5 1.54597 5.5C1.62797 5.5004 1.68702 14.6916 1.72446 15.1516C1.79098 15.9249 2.06474 11.8341 2.1253 11.8404C2.13746 11.9829 2.20225 18.5284 2.30792 16.3198C2.41466 14.0852 2.41701 8.35609 2.4281 8.15542C2.49196 7.06123 2.55019 17.0824 2.5879 17.3813C2.60697 17.5389 2.7241 12.1572 2.75777 12.0006C2.79156 11.8665 2.86529 15.9564 2.97195 17.5682C3.05119 18.7698 3.11194 15.2707 3.12436 15.8859C3.13259 16.3257 3.13124 25.7944 3.14517 26.26C3.16578 26.9532 3.26048 24.7355 3.28416 25.0584C3.31821 25.5162 3.28403 28.5738 3.31907 28.176C3.34518 27.8768 3.67164 16.023 3.75884 16.0995C3.90757 16.235 3.56536 28.7883 4.15229 17.1076C4.15615 17.0259 4.11443 14.1827 4.11805 14.1035C4.22604 12.3489 4.39215 21.4637 4.36311 10.3184C4.55067 31.0511 4.5867 12.8984 4.83713 15.966C4.93339 17.1507 4.97308 25.1878 4.98753 25.2253C5.10964 24.4441 5.01493 21.8835 5.07481 21.0129C5.10827 20.5338 5.23738 27.7248 5.32122 26.1065C5.36443 25.2697 5.34905 17.6363 5.35748 17.3212C5.43696 14.3004 5.52259 18.0048 5.57904 17.3412C5.6169 16.9003 5.6199 12.2942 5.62671 12.1742C5.64089 11.9802 5.79384 18.2346 5.84761 19.5375C5.88897 20.528 5.95378 16.8104 5.97182 17.5015C6.07966 21.6653 5.80462 30.5241 6.19003 21.9875C6.21366 21.4663 6.20412 18.2372 6.20883 18.1423C6.31808 16.1468 6.32753 22.0921 6.41696 23.1558C6.57108 24.9818 6.48516 16.4366 6.59355 23.543C6.69433 18.2119 6.69013 15.2414 6.66203 9.00323C6.74041 26.2759 7.13938 32.3723 7.12933 13.1956C7.12311 19.2958 7.34829 18.6191 7.35224 20.4388C7.35444 21.5704 7.13056 30.4154 7.63289 26.3602C7.69564 25.8511 7.61591 20.4784 7.74435 22.1611C7.71157 35.0563 7.82607 22.4346 7.84304 22.4215C8.13894 22.5884 7.89659 54.0978 7.93033 59.5119C7.96946 65.7944 8.20263 71.3776 8.20292 72.7432C8.20302 77.2363 8.08464 73.5077 8.04111 74.5122C8.02245 74.9528 8.05431 77.5934 8.09545 80.5L4.31958 76.7241C8.13231 76.6702 12.4027 76.6002 12.7647 76.6073C15.2396 76.6573 12.7278 76.7976 12.985 76.8047C16.0493 76.8906 33.2087 76.7808 38.0124 76.8134C37.8637 76.7224 28.2189 76.7152 34.2406 76.569C41.2526 76.3986 41.6542 76.7998 41.8376 76.8174C73.9657 76.8136 106.094 76.8098 138.222 76.806C137.822 76.5926 116.817 76.7535 116.339 76.7254C113.533 76.5591 149.016 76.5621 153.369 76.6375C150.062 76.5914 146.756 76.5453 143.449 76.4992C149.095 76.2538 161.591 76.5726 169.758 76.4642C172.396 76.4291 167.33 76.3344 167.435 76.3279C170.4 76.2327 175.158 76.3061 171.601 76.434C178.84 76.3114 177.782 76.4467 183.337 76.4569C183.623 76.4573 181.238 76.3583 185.633 76.3172C187.692 76.2981 198.675 76.2977 200.146 76.2111C200.751 76.1747 195.179 75.7907 194.492 76.1212C182.546 75.9601 190.675 76.2718 186.034 76.2642C185.322 76.2624 186.959 76.078 175.272 76.1648C177.498 75.8321 190.956 76.0809 193.263 76.0406C198.021 75.9578 178.415 75.786 174.818 76.0453C176.499 75.7857 173.428 76.0103 169.057 75.9996C164.274 75.9881 166.358 75.9108 163.77 75.9103C156.691 75.9084 159.626 76.0917 153.79 75.9264C159.479 76.4379 143.799 75.9939 139.23 75.86C146.665 75.834 154.099 75.8081 161.534 75.7821C161.109 75.7552 160.683 75.7284 160.259 75.7015C162.217 75.7053 164.175 75.7091 166.133 75.7129C165.819 75.7387 165.506 75.7644 165.192 75.7902C175.289 75.6228 177.753 75.8109 178.577 75.813C189.176 75.8348 201.419 75.8332 212.136 75.8338C213.743 75.8339 212.64 75.6665 224.359 75.7975C228.097 75.8393 224.568 75.9695 228.805 75.9499C234.105 75.5961 234.005 75.8783 235.581 75.8788C240.103 75.8787 242.867 75.7911 243.285 75.7902C248.872 75.7765 257.055 75.7911 263.192 75.7781C263.307 75.7767 260.113 75.668 264.1 75.7002C265.5 75.7117 278.057 76.1757 289.034 76.0245C286.179 75.9931 283.323 75.9618 280.469 75.9305C283.826 75.9743 307.349 75.8573 301.597 75.7331C298.071 75.6572 289.464 75.9563 288.519 75.6686C296.347 75.7547 339.581 75.626 342.947 75.6928C343.412 75.7023 340.548 75.7957 341.191 75.8076C341.689 75.8167 351.592 75.7946 352.907 75.8304C353.689 75.8517 349.313 75.9089 349.669 75.9426C349.981 75.9665 362.348 76.0065 363.054 75.8895C360.017 75.9365 351.481 75.8955 355.958 75.7969C356.533 75.7846 359.517 75.8601 360.217 75.8445C366.708 75.7012 347.311 75.7356 344.309 75.7344C356.493 75.5854 375.339 75.7611 389.457 75.6639C395.162 75.7613 380.999 75.8129 387.454 75.8935C400.844 76.0608 391.017 75.7589 391.433 75.7465C394.758 75.6483 406.087 76.1747 406.093 75.774C410.947 75.8344 409.376 75.8849 416.226 75.8325C415.325 75.8047 414.424 75.7769 413.523 75.7492C421.129 75.5171 437.226 76.1027 436.02 76.1473C432.776 76.2669 424.392 76.0804 423.676 76.0849C422.616 76.0915 419.687 76.4981 408.089 76.1346C403.339 76.4073 426.471 76.3186 415.946 76.5045C423.054 76.474 452.298 76.6638 456.508 76.5441C457.01 76.5285 454.67 76.2568 461.895 76.3951C465.325 76.461 457.054 76.4641 458.624 76.526C463.453 76.716 529.134 76.5945 541.61 76.5844C542.42 76.5841 542.122 76.6685 542.919 76.6677C545.363 76.6653 554.271 76.5396 558.647 76.5784C549.582 76.4223 567.186 76.4101 571.664 76.4273C578.461 76.4535 578.041 76.6019 580.977 76.6334C592.294 76.7551 609.829 76.4027 618.621 76.7321C618.14 76.4052 633.828 76.8924 640.965 76.8953C646.555 76.8976 654.666 76.6813 647.12 76.5495C656.77 76.5646 666.927 76.5036 675.979 76.4837C677.475 76.4804 675.416 76.5771 677.969 76.5683C678.2 76.5668 678.52 76.4721 680.712 76.4622C698.809 76.3797 690.004 76.581 693.39 76.6402C695.284 76.6733 696.683 76.6898 697.709 76.6952C687.161 76.7137 674.994 76.7509 671.74 76.7536C674.516 76.9628 695.119 76.7134 701.154 76.7697C701.363 76.7718 700.634 76.8871 700.846 76.8879C700.851 76.8879 700.855 76.8879 700.86 76.8879C703.121 76.8967 717.523 76.8542 714.558 76.7167C713.763 76.68 707.133 76.68 699.271 76.6925C701.399 76.6667 699.81 76.5376 700.185 76.5321C704.739 76.4682 715.895 76.5943 719.852 76.6113C720.757 76.615 720.692 76.5323 720.84 76.5321C724.44 76.5509 722.963 76.7872 726.655 76.5435C733.173 76.838 714.44 76.5872 715.76 76.7785C716.774 76.9257 758.382 76.8466 758.258 76.6146C758.401 76.6395 758.973 76.6702 760.147 76.7053C762.749 76.7831 774.33 76.7588 776.329 76.716C776.666 76.7076 776.532 76.4824 776.95 76.4804C777.996 76.4752 792.151 76.6517 797.438 76.5186C794.583 76.4871 791.728 76.4555 788.873 76.424C806.114 76.422 803.449 76.355 797.705 76.2877C797.417 76.2871 797.138 76.2785 796.864 76.2776C792.411 76.2278 786.703 76.1799 786.616 76.1621C786.418 76.1209 797.137 76.0909 804.32 76.1204L799.94 80.5C799.959 75.8606 800.003 72.6971 800.085 74.905C800.098 75.2484 800.087 78.0367 800.083 80.5L804.32 76.2636C801.158 76.259 798.531 76.2663 802.298 76.3501C802.589 76.3566 803.343 76.3588 804.32 76.3588L800.178 80.5C800.178 77.542 800.157 72.5445 800.17 72.2014C800.232 70.4512 800.307 75.9341 800.388 80.5L804.32 76.5683C800.916 76.6289 798.022 76.6934 799.013 76.7597C800.647 76.7073 802.444 76.6832 804.32 76.6723L800.492 80.5C800.472 77.0865 800.496 73.4148 800.471 70.005C800.454 67.6008 800.341 67.0106 800.339 66.7139C800.309 62.2814 800.428 64.7691 800.425 63.2893C800.423 62.4954 800.171 53.761 800.518 55.4119C800.263 26.6332 800.263 47.451 800.282 65.1051C800.156 59.5269 800.217 48.5902 800.188 43.6826C800.177 41.9218 800.061 42.9654 800.038 39.9909C800.002 35.3216 800.071 17.2107 800.119 5.5L804.32 9.70041C800.676 9.68528 797.652 9.67211 795.845 9.66466C800.522 9.62372 799.154 9.49749 795.545 9.50621C791.935 9.51499 794.967 9.68348 794.263 9.70159C793.509 9.72034 776.573 9.64082 773.755 9.66265C786.505 9.60162 783.629 9.47574 772.807 9.46257C774.372 9.42631 775.936 9.39005 777.501 9.3538C771.158 9.40475 757.823 9.21272 754.155 9.26987C753.58 9.27906 755.647 9.3849 755.324 9.39005C752.108 9.43503 741.166 9.32709 740.657 9.3632C740.225 9.39326 744.893 9.482 743.161 9.52568C742.799 9.53488 738.299 9.39181 733.868 9.42698C732.224 9.43992 733.214 9.54002 732.8 9.54582C729.348 9.59397 731.385 9.42541 725.076 9.4525C720.454 9.47254 717.011 9.63733 710.623 9.58275C731.597 9.79282 713.966 9.70508 705.196 9.76873C703.79 9.77889 704.995 9.9606 696.597 9.87213C714.469 9.54356 691.502 9.69846 686.804 9.69488C686.546 9.69376 686.458 9.57393 684.154 9.57201C683.959 9.57211 684.239 9.6531 682.098 9.65929C661.788 9.71784 674.774 9.62635 670.916 9.54649C669.273 9.51247 659.396 9.62698 656.736 9.62975C656.125 9.63003 656.406 9.54589 654.039 9.54918C649.853 9.55522 646.102 9.6448 643.338 9.65191C643.016 9.65232 643.003 9.51955 637.764 9.56261C636.291 9.57465 634.637 9.62179 636.729 9.65996C643.667 9.78552 656.826 9.56822 664.667 9.69353C671.817 9.80766 649.271 9.81842 648.098 9.81909C647.668 9.8195 652.071 9.75358 647.597 9.74053C643.777 9.72967 636.795 9.95899 631.102 9.90906C630.667 9.90535 626.119 9.71092 626.328 9.69958C626.519 9.69129 633.505 9.64909 632.49 9.59282C632.369 9.58641 627.929 9.58772 627.35 9.54582C626.64 9.49483 624.726 8.99439 623.778 8.98184C621.345 8.95084 622.929 9.06497 621.355 9.05703C617.98 9.04029 606.275 8.8923 605.894 9.06576C607.828 9.07606 609.762 9.08635 611.695 9.09665C600.936 9.11449 605.522 9.18833 603.998 9.22086C602.357 9.25605 602.818 9.10358 599.192 9.08926C598.403 9.08611 583.228 9.11794 583.504 9.18192C591.896 9.0801 588.784 9.26852 589.171 9.27189C590.642 9.28416 592.519 9.17847 594.492 9.18057C608.366 9.19712 594.374 9.36394 597.649 9.40684C598.777 9.42128 601.023 9.33105 601.501 9.33567C603.056 9.35061 603.081 9.46877 604.118 9.45921C606.538 9.43703 603.713 9.26984 603.905 9.26114C606.067 9.15652 614.54 9.2867 609.265 9.46861C612.432 9.53417 612.803 9.31308 615.313 9.40147C620.305 9.57649 612.827 9.53153 610.801 9.56059C603.532 9.66542 601.376 9.58057 591.087 9.60961C587.382 9.61985 582.993 9.72725 581.274 9.73315C580.191 9.73685 569.966 9.36319 569.665 9.948C565.69 9.89141 559.453 9.50604 555.359 9.52367C551.682 9.53974 552.851 9.74663 552.508 9.75463C551.982 9.76721 547.537 9.75091 546.033 9.78015C544.271 9.81469 545.15 9.89366 542.354 9.92584C535.397 10.0057 535.579 9.79454 534.864 9.78082C526.562 9.62219 530.197 9.92256 528.355 9.94666C526.642 9.9688 502.612 9.85318 497.553 9.9292C499.612 9.8869 501.67 9.8446 503.729 9.8023C500.045 9.67058 496.14 9.88543 496.072 9.64922C495.324 10.0306 487.721 9.77566 485.437 9.78552C484.537 9.78957 484.608 9.85456 483.481 9.85736C479.08 9.86875 469.158 9.81702 466.772 9.84997C456.449 9.99184 482.845 10.2278 484.923 10.2421C480.763 10.2379 457.229 10.3233 468.047 10.5066C469.719 10.5349 472.682 10.3642 473.621 10.3576C479.978 10.3136 474.979 10.4666 475.477 10.4811C476.324 10.5046 480.508 10.3567 481.612 10.3743C481.98 10.38 479.608 10.5185 485.671 10.5214C482.689 10.6556 465.649 10.5463 463.414 10.5778C462.617 10.589 467.609 10.8759 453.026 10.5973C453.195 10.6239 453.365 10.6505 453.534 10.6772C445.414 10.6881 437.294 10.6991 429.174 10.7101C430.056 10.6487 434.615 10.5254 428.873 10.5516C425.568 10.5667 428.013 10.7034 427.712 10.7074C424.745 10.745 372.238 10.6995 362.063 10.7148C358.601 10.7197 348.953 10.8295 348.217 10.8316C343.818 10.8426 328.24 10.7711 325.133 10.7866C323.192 10.7965 325.037 10.9108 323.303 10.9054C321.692 10.9003 323.361 10.7899 322.883 10.7852C318.918 10.7452 288.804 10.8901 281.653 10.7859C286.024 10.8172 307.834 10.5966 307.395 10.5187C307.3 10.508 302 10.424 300.906 10.465C299.1 10.3694 292.897 10.6605 289.524 10.6033C289.143 10.5968 290.645 10.4335 284.624 10.4039C282.55 10.3938 277.119 10.521 271.653 10.3784C263.74 10.4469 222.136 10.2352 219.282 10.4106C219.198 10.4199 225.056 10.4803 221.098 10.5523C215.836 10.648 220.561 10.3256 214.429 10.2978C213.505 10.2936 196.442 10.3262 195.884 10.3461C190.716 10.5271 205.625 10.6004 205.417 10.6214C204.897 10.6744 192.508 10.7064 192.005 10.6939C191.526 10.6809 201.629 10.4412 189.488 10.5321C190.879 10.5608 192.27 10.5894 193.661 10.6181C187.951 10.6739 187.407 10.508 186.023 10.4979C181.723 10.4658 177.072 10.7177 170.182 10.4066C168.36 10.324 171.385 10.2323 171.157 10.2199C168.968 10.1088 166.176 10.4061 162.885 10.1843C162.638 10.1678 170.296 10.0349 156.911 10.0346C157.832 10.0559 158.753 10.0771 159.674 10.0984C157.787 10.1459 144.234 10.1741 142.411 10.1629C137.085 10.1301 141.73 9.97743 136.376 9.99567C139.81 10.2048 123.53 10.2321 124.467 10.0521C122.193 10.2782 108.363 10.1038 101.862 10.0984C97.7606 10.0952 89.3937 10.1939 88.0904 10.1823C86.5027 10.1682 86.9852 10.0139 84.1184 9.97955C83.3008 9.96976 74.7666 10.0829 67.2755 9.92316C65.8237 9.89238 62.7746 9.6307 65.473 9.56529C70.0918 9.45337 78.8291 9.66419 78.7177 9.50957C78.5867 9.34415 66.8182 9.44253 63.6506 9.42094C49.0265 9.32109 57.4711 9.14525 57.095 9.09195C56.1197 8.96259 48.1291 8.96661 47.7957 8.95498C46.4138 8.90332 52.0761 8.80095 52.1616 8.722C52.2648 8.61921 44.5626 8.4337 46.3137 8.39905C48.8201 8.34985 55.8985 8.50446 56.3473 8.49708C62.1892 8.39735 54.1816 8.15988 51.9747 8.0432C51.3057 8.00731 53.9713 7.94832 53.4166 7.93779C44.9494 7.77805 51.6318 8.27155 45.9999 8.23858C40.9751 8.20921 47.4402 8.05315 47.2483 8.04454C47.0002 8.03509 40.9923 8.02658 40.0518 7.97136C39.5883 7.94371 55.2036 7.64016 54.5515 7.50406C49.5692 7.53405 44.5869 7.56404 39.6045 7.59403C39.2139 7.41657 46.3802 7.5472 47.1214 7.5289C48.6136 7.49219 44.4528 7.40238 44.6314 7.34628C44.7272 7.31059 49.6106 7.18325 45.1988 7.13075C43.6826 7.11262 40.5006 7.23705 34.9783 7.10994C54.1967 6.94759 40.8786 6.84784 40.3122 6.78498C39.7573 6.72212 48.9323 6.57417 37.7954 6.60034C37.3126 6.25498 38.0355 6.49117 41.2 6.43047C45.0767 6.35586 36.117 6.24214 50.2857 6.32842C49.4796 6.16672 38.0912 6.17816 37.4883 6.16526C36.9677 6.15357 39.4991 6.07404 38.5965 6.04709C27.9203 5.73466 35.2532 5.87733 32.1611 5.67782C31.8861 5.65999 21.7953 5.58602 29.4774 5.55696C43.4731 5.50414 49.3223 5.73327 51.6743 5.24341C41.3221 5.03063 28.7791 5.34682 25.6322 5.35218C20.8155 5.3599 25.8052 5.26 25.2116 5.232C25.0055 5.22295 20.8547 5.23121 20.799 5.22327C17.8393 4.84965 39.2771 5.21707 46.0266 5.1521C44.2175 5.09615 42.4084 5.0402 40.5992 4.98425C43.0537 4.98201 45.5081 4.97977 47.9626 4.97753C36.2696 4.86506 47.5503 4.93495 50.466 4.63243C51.1205 4.56445 43.4387 4.68103 52.2017 4.4921C45.7385 4.44849 47.8 4.38668 41.9477 4.47196C42.0988 4.3507 55.2661 4.21392 60.4595 4.1517C42.1123 4.01543 52.575 4.46021 36.7139 4.22488C33.7727 4.37503 41.3434 4.34579 40.7261 4.37058C38.5111 4.45969 33.3188 4.31819 27.0542 4.63041C26.0341 4.68167 30.3503 4.83946 23.9633 4.83184C23.2569 4.83076 19.1871 4.69592 19.2435 4.68614C19.7831 4.58054 23.8104 4.62011 23.9766 4.57603C24.1327 4.5343 19.6396 4.5594 19.6241 4.54783C19.486 4.41553 23.3729 4.49727 22.8084 4.45585C21.5892 4.36577 5.42756 4.08106 26.5201 4.16445C9.00049 4.31403 24.2771 4.31054 31.0996 4.25308C32.8395 4.23868 33.2802 4.15965 35.7593 4.13223C38.9483 4.09671 42.6808 4.13464 44.331 4.12014C46.1057 4.10415 36.0217 3.91736 50.6062 3.9731C43.1837 3.7873 30.0728 3.98539 22.7817 3.85493C8.07151 3.59131 33.0382 3.5347 35.6392 3.50916C36.3321 3.50223 34.009 3.39551 34.4709 3.38897C35.2262 3.37894 49.3959 3.42828 50.7931 3.33996C52.1865 3.25172 45.603 3.34402 45.1654 3.252C44.8688 3.19005 61.9624 3.08017 52.709 3.03782C46.3312 3.0088 34.5752 3.2578 32.595 2.99015C41.9744 2.968 51.3538 2.94584 60.7333 2.92368C55.5996 2.82185 50.466 2.72002 45.3323 2.61819C55.8597 2.5859 64.9607 2.70086 74.9593 2.55508C50.933 2.22877 82.7603 2.29467 83.1103 2.25496C83.2274 2.23121 73.7705 1.96635 72.2489 1.91791C80.6288 1.81602 106.092 1.76623 91.1946 1.43919C93.8986 1.51304 100.447 1.33075 100.36 1.31699C99.5289 1.17251 85.2471 1.2662 87.5764 1.13571C90.2757 0.984282 94.0582 1.18972 98.2108 1.17331C119.52 1.08778 113.674 0.333537 135.041 0.452887C134.616 0.426031 134.191 0.399174 133.766 0.372318C156.991 0.415064 180.216 0.457811 203.44 0.500557C212.527 0.270226 236.711 0.129969 248.589 0.155452C250.98 0.160415 262.723 0.281298 263.609 0.302491C265.25 0.343107 256.227 0.358605 260.304 0.434759C261.165 0.45039 281.046 0.501183 279.624 0.372318C277.396 0.357377 270.424 0.422153 269.283 0.391789C261.268 0.175058 322.557 0.348202 325.593 0.260863C324.236 0.219012 322.878 0.177161 321.521 0.135309C325.388 0.1559 329.256 0.176489 333.123 0.197079ZM155.409 10.5469C153.088 10.6762 147.27 10.5791 143.833 10.6154C139.084 10.6662 131.011 11.1641 134.487 10.6651C141.461 10.6257 148.435 10.5863 155.409 10.5469ZM257.334 10.7396C252.657 10.6701 256.284 10.3914 260.117 10.5073C260.543 10.5205 263.661 10.8331 257.334 10.7396ZM208.307 10.6073C208.504 10.6036 212.545 10.611 212.686 10.6154C216.311 10.7273 204.126 10.7044 208.307 10.6073ZM445.142 10.4643C439.99 10.4763 443.721 10.7297 446.925 10.6255C447.126 10.6188 445.481 10.4637 445.142 10.4643ZM441.477 10.4576C437.475 10.2307 429.415 10.6906 435.823 10.6443C436.445 10.6396 441.662 10.4686 441.477 10.4576ZM240.664 10.6288C241.191 10.5418 246.015 10.5838 248.074 10.6046C248.018 10.684 242.685 10.6191 240.664 10.6288ZM362.971 10.6046C363.175 10.5363 346.409 10.5401 345.267 10.6302C347.913 10.5919 362.778 10.6661 362.971 10.6046ZM405.969 10.5086C405.544 10.4968 399.752 10.5148 399.921 10.5751C402.748 10.6542 407.883 10.5621 405.969 10.5086ZM491.432 10.5127C491.746 10.4975 487.409 10.1136 497.687 10.3663C499.196 10.4033 493.806 10.5036 494.342 10.5174C495.466 10.5442 496.353 10.5567 497.066 10.559C492.279 10.5908 487.307 10.6058 486.826 10.5825C484.567 10.4725 491.293 10.519 491.432 10.5127ZM536.299 10.2266C537.286 10.164 543.585 10.1975 545.018 10.2233C545.264 10.2281 544.191 10.3927 547.027 10.3804C549.305 10.3702 545.903 10.2017 550.339 10.2286C554.821 10.2557 548.832 10.3758 549.224 10.3844C549.748 10.3957 556.682 10.32 556.467 10.418C556.306 10.4906 548.878 10.4415 547.041 10.4569C544.689 10.4768 547.541 10.5977 543.609 10.5717C541.139 10.5555 542.508 10.3428 541.987 10.332C541.55 10.3234 532.915 10.4458 536.313 10.2273C536.308 10.2271 536.304 10.2269 536.299 10.2266ZM498.361 10.5496C498.001 10.5568 497.578 10.5606 497.066 10.559C497.501 10.5561 497.933 10.5527 498.361 10.5496ZM168.92 10.4536C171.351 10.5192 164.136 10.6033 161.403 10.5174C161.356 10.448 168.533 10.4434 168.92 10.4536ZM502.801 10.3764C509.912 10.4296 504.681 10.5029 498.361 10.5496C500.368 10.5095 500.413 10.3586 502.801 10.3764ZM300.906 10.465C301.206 10.4809 301.396 10.5056 301.42 10.5462C300.632 10.5018 300.561 10.4779 300.906 10.465ZM317.495 10.5375C323.182 10.4137 311.628 10.4187 311.701 10.5073C311.735 10.5407 317.268 10.5424 317.495 10.5375ZM451.751 10.4764C451.231 10.4643 459.313 10.0905 447.579 10.371C453.841 10.415 447.234 10.4557 447.332 10.4885C447.587 10.5826 458.107 10.4921 460.436 10.5328C462.26 10.3645 453.469 10.5163 451.765 10.4764C451.76 10.4764 451.756 10.4764 451.751 10.4764ZM617.163 10.3173C615.737 10.4159 611.215 10.3842 608.164 10.3784C609.589 10.2797 614.111 10.3115 617.163 10.3173ZM267.972 75.6686C288.88 75.5774 291.589 75.9791 272.458 75.8204C272.083 75.817 266.702 75.7093 267.972 75.6686ZM447.415 75.7727C449.386 75.9478 442.865 75.9759 438.583 75.9036C437.614 75.8874 434.031 75.71 438.123 75.6753C437.992 75.8876 444.319 75.9686 447.415 75.7727ZM506.819 10.2642C508.89 10.1475 515.264 10.2306 518.622 10.2481C516.573 10.3443 509.789 10.3008 506.819 10.2642ZM336.678 75.8781C338.882 75.8914 340.37 75.739 339.989 75.7264C338.286 75.6682 334.167 75.7914 336.678 75.8781ZM486.245 10.2461C485.953 10.1763 494.396 10.1092 494.983 10.2817C493.179 10.2692 486.454 10.2899 486.245 10.2461ZM611.408 10.2649C610.098 10.2294 616.885 10.1659 618.938 10.2011C618.773 10.2754 612.267 10.288 611.408 10.2649ZM372.16 75.8264C374.133 75.8396 379.064 75.8437 379.61 75.7821C380.288 75.7051 373.058 75.7314 372.16 75.8264ZM4.95415 75.9593C4.70526 75.9317 12.3412 75.7323 15.7355 75.7828C22.1814 75.8793 5.22406 75.9789 4.95415 75.9593ZM315.817 75.9567C309.593 75.8118 316.503 75.9521 316.23 75.7996C312.042 75.7941 301.624 75.7865 308.787 75.9365C310.182 75.9655 313.864 75.9468 315.817 75.9567ZM321.558 76.0077C322.225 75.9583 326.711 75.8025 322.833 75.8137C321.04 75.819 318.15 75.9921 321.558 76.0077ZM52.2651 75.8915C57.8433 76.0266 32.2719 75.9541 31.5369 75.9305C31.1485 75.918 30.8941 75.9062 30.7492 75.8962C29.81 75.939 24.98 75.9467 24.4206 75.8385C25.869 75.8474 29.8228 75.8379 30.2819 75.8499C30.4799 75.855 30.6275 75.8598 30.7292 75.8647C32.4335 75.7707 51.1959 75.8659 52.2651 75.8915ZM94.6361 76.0305C88.2533 76.2297 87.1232 75.891 87.6732 75.8801C94.6221 75.7415 90.0903 75.9913 90.3035 76.003C90.7889 76.0225 95.7249 75.9065 94.6159 76.0305C94.6226 76.0305 94.6294 76.0305 94.6361 76.0305ZM60.9502 75.9473C60.688 75.9517 55.3294 75.9412 55.1089 75.9358C50.7171 75.822 65.8803 75.8512 60.9502 75.9473ZM570.119 9.98963C573.955 10.0233 570.192 10.1479 567.642 10.1031C567.433 10.0987 566.734 9.95988 570.119 9.98963ZM324.622 75.9741C325.511 75.9977 348.266 76.0865 346.899 75.8982C344.966 75.9205 319.102 75.8236 324.622 75.9741ZM494.673 76.0198C490.66 76.0183 495.035 75.8408 497.176 75.907C497.97 75.9316 495.684 76.02 494.673 76.0198ZM474.863 10.085C470.696 10.1825 471.558 9.85533 475.17 9.96747C475.311 9.97186 475.026 10.0812 474.863 10.085ZM462.616 75.9177C476.455 75.8101 473.177 76.3729 455.186 76.1829C455.749 76.1579 456.312 76.1328 456.875 76.1077C436.109 76.0233 455.455 76.0681 460.54 76.0366C462.472 76.0246 460.852 75.9306 462.603 75.917C462.607 75.9173 462.612 75.9175 462.616 75.9177ZM515.775 76.0305C529.102 76.4299 503.66 76.1698 496.362 76.2219C503.436 76.0569 512.647 76.0819 500.12 75.913C518.436 75.8804 510.811 76.0395 511.543 76.0527C512.408 76.0675 515.207 76.0134 515.775 76.0305ZM480.62 76.0332C479.851 76.0449 474.046 75.9635 471.955 75.9768C474.879 75.8404 485.735 75.954 480.62 76.0332ZM139.056 75.9379C138.574 76.0448 137.383 76.1235 132.801 76.0836C134.216 76.0298 137.143 75.9836 139.056 75.9379ZM151.003 9.98425C147.848 9.97659 141.566 9.9363 143.492 10.0487C143.703 10.0583 150.993 10.0473 151.003 9.98425ZM390.712 76.0607C391.383 76.0739 408.735 76.0827 402.741 75.9647C400.934 75.9291 385.146 75.9443 390.712 76.0607ZM300.856 76.0473C302.308 76.0484 308.208 76.0283 308.333 76.003C308.732 75.9156 301.491 75.9636 300.856 76.0473ZM135.088 9.87481C134.672 9.86372 125.036 9.88337 126.095 9.93524C128.106 10.0333 136.512 9.91302 135.088 9.87481ZM584.078 9.73919C584.883 9.73524 585.949 9.85137 586.227 9.85266C586.882 9.85432 601.627 9.80965 595.994 9.95874C595.054 9.98373 573.839 9.92647 571.08 9.91174C570.013 9.75232 579.075 9.90398 581.281 9.88757C581.669 9.88446 581.918 9.75108 584.071 9.73986C584.073 9.73964 584.076 9.73941 584.078 9.73919ZM115.191 76.0507C114.54 76.152 97.2055 76.2191 97.4064 76.0963C103.334 76.0811 109.263 76.0659 115.191 76.0507ZM123.996 76.0674C127.695 76.1391 119.033 76.1629 116.479 76.1312C116.452 76.063 123.457 76.057 123.996 76.0674ZM333.734 76.426C335.476 76.4012 330.119 76.2533 331.318 76.2246C332.086 76.2066 335.978 76.2621 337.219 76.2158C337.571 76.2011 333.601 76.0621 332.452 76.0681C330.821 76.0761 332.403 76.1855 330.623 76.1863C324.714 76.1886 319.474 76.1106 313.934 76.1124C313.434 76.1128 317.314 76.1901 313.046 76.189C312.387 76.1889 308.425 76.0739 303.32 76.0909C292.045 76.4473 283.768 76.0974 269.46 76.2259C270 76.2595 280.699 76.3495 281.33 76.3528C293.289 76.4114 314.713 76.4178 327.239 76.4186C330.453 76.4189 328.892 76.3435 330.276 76.3407C331.37 76.3387 330.069 76.4783 333.734 76.426ZM152.678 9.90704C151.175 9.76754 145.9 9.85584 142.531 9.84863C143.717 9.97446 149.386 9.87613 152.678 9.90704ZM201.822 76.1755C203.511 76.1702 208.746 76.2122 209.178 76.1702C209.736 76.1153 202.179 76.0807 201.822 76.1755ZM667.217 9.7788C667.381 9.775 671.443 9.78247 671.597 9.78686C675.226 9.89882 663.041 9.87588 667.217 9.7788ZM764.396 9.80566C767.477 9.78844 770.584 9.74485 771.619 9.85803C769.656 9.8407 764.035 9.88449 764.396 9.80566ZM785.174 76.1977C785.81 76.3459 776.538 76.2499 774.787 76.2366C775.436 76.1708 784.708 76.0909 785.174 76.1977ZM139.724 76.4032C134.055 76.3944 135.252 76.6189 131.653 76.5173C131.066 76.5001 129.167 76.0326 135.398 76.2078C136.52 76.2393 132.133 76.3504 139.724 76.4032ZM452.255 76.1782C450.814 76.2763 446.308 76.2472 443.263 76.2393C443.946 76.1665 450.089 76.1852 452.255 76.1782ZM117.684 9.76269C115.025 9.62426 102.742 9.72695 105.781 9.81842C106.213 9.83035 115.961 9.75746 117.684 9.76269ZM521.232 9.81707C526.287 9.70807 515.818 9.6743 512.514 9.78082C514.01 9.77384 520.892 9.82425 521.232 9.81707ZM800.098 67.4416C800.102 67.6842 800.092 73.0431 800.086 73.2828C799.973 77.6748 800.002 62.5114 800.098 67.4416ZM732.439 9.62572C734.37 9.53601 747.065 9.6084 749.91 9.69823C747.172 9.8294 730.043 9.73776 732.439 9.62572ZM163.049 76.3394C159.005 76.344 155.168 76.3164 151.453 76.2776C152.235 76.2021 162.622 76.283 163.049 76.3394ZM797.705 76.2877C797.417 76.2871 797.138 76.2785 796.864 76.2776C797.15 76.2808 797.431 76.2845 797.705 76.2877ZM253.565 76.3924C256.954 76.4222 256.251 76.2839 256.042 76.2796C253.492 76.2348 249.729 76.3587 253.565 76.3924ZM148.806 9.70159C147.631 9.5767 141.931 9.67357 138.652 9.64385C139.604 9.74248 146.165 9.71469 148.806 9.70159ZM530.048 76.2863C534.306 76.4217 516.982 76.579 513.332 76.4918C513.062 76.4081 529.424 76.2678 530.048 76.2863ZM505.538 9.62975C505.198 9.53189 497.924 9.64999 499.469 9.69622C500.448 9.72564 505.741 9.69055 505.538 9.62975ZM504.62 76.4347C502.992 76.4646 499.198 76.368 500.534 76.3092C502.249 76.2337 505.04 76.4262 504.62 76.4347ZM358.588 76.5133C359.3 76.5282 368.87 76.4278 364.917 76.3279C362.173 76.2586 361.736 76.4 361.091 76.4005C360.371 76.4 345.007 76.2269 358.588 76.5133ZM627.073 76.3716C623.462 76.4092 619.096 76.3655 615.317 76.3682C616.856 76.3077 625.537 76.2912 627.073 76.3716ZM533.589 9.60356C532.712 9.56399 508.823 9.54015 522.394 9.66198C523.185 9.66886 536.253 9.72342 533.589 9.60356ZM139.724 76.4032C140.439 76.4043 141.264 76.4089 142.221 76.4186C141.271 76.4148 140.444 76.4082 139.724 76.4032ZM204.105 76.4179C202.8 76.4892 209.374 76.5082 211.315 76.4703C211.912 76.3833 204.285 76.408 204.105 76.4179ZM615.03 76.4676C612.852 76.5084 608.9 76.4649 606.204 76.4696C606.661 76.4034 614.088 76.4003 615.03 76.4676ZM767.938 76.5421C763.614 76.5028 758.293 76.5209 758.211 76.6019C758.121 76.5892 757.911 76.5758 757.563 76.5623C757.212 76.5489 752.58 76.5866 750.567 76.5589C738.519 76.3947 797.094 76.4624 763.144 76.6912C764.742 76.6415 766.34 76.5918 767.938 76.5421ZM715.263 9.43504C712.809 9.33643 705.935 9.46 707.719 9.49882C708.961 9.52543 717.719 9.53432 715.263 9.43504ZM800.443 10.878C800.454 10.4156 800.431 7.5778 800.399 5.5L804.32 9.42066C803.101 9.43929 802.144 9.46083 802.081 9.48002C802.753 9.48956 803.523 9.49511 804.32 9.49735L800.322 5.5C800.312 9.27592 800.375 13.6377 800.443 10.878ZM696.397 9.31956C694.857 9.30468 692.892 9.46369 693.073 9.47062C694.638 9.52867 698.984 9.40809 696.397 9.31956ZM151.467 76.8315C153.758 76.877 161.064 76.762 162.655 76.6569C162.951 76.6772 163.749 76.7037 165.212 76.7355C165.207 76.7355 165.203 76.7355 165.199 76.7355C167.174 76.7779 226.222 76.8243 186.614 76.622C185.374 76.6155 187.068 76.7098 182.021 76.6932C181.688 76.692 181.522 76.615 180.493 76.6113C178.122 76.6032 165.499 76.5547 162.962 76.6167C162.94 76.6024 162.777 76.5888 162.428 76.5764C159.317 76.4654 149.689 76.7964 151.467 76.8315ZM800.457 24.1828C800.486 22.8326 800.458 18.5575 800.391 18.1145C800.357 20.2346 800.391 27.317 800.457 24.1828ZM532.848 9.32493C530.097 9.26907 523.124 9.37349 525.231 9.429C526.523 9.46314 536.021 9.38905 532.848 9.32493ZM780.184 9.39878C795.961 9.47906 783.95 9.39229 786.366 9.2927C784.305 9.32806 782.245 9.36342 780.184 9.39878ZM78.4473 76.5744C80.963 76.5973 78.0065 76.7938 75.2363 76.6872C74.3671 76.6533 77.0397 76.5619 78.4473 76.5744ZM8.18412 41.0267C8.00987 43.174 8.11225 32.6871 8.23179 36.7743C8.23582 36.9641 8.19075 40.8731 8.18412 41.0267ZM44.2276 76.7066C45.9352 76.588 47.047 76.5739 51.8579 76.6032C44.7364 76.6367 51.3412 76.7416 44.2276 76.7066ZM758.258 76.6146C758.23 76.6098 758.207 76.6063 758.211 76.6019C758.242 76.6062 758.255 76.6104 758.258 76.6146ZM681.564 9.35044C679.589 9.24994 674.054 9.25733 675.702 9.3585C675.862 9.36787 680.754 9.4247 681.564 9.35044ZM162.655 76.6569C162.393 76.6389 162.526 76.6273 162.962 76.6167C162.983 76.6301 162.87 76.6428 162.655 76.6569ZM711.284 9.26853C711.086 9.34352 719.511 9.37268 719.849 9.36387C724.684 9.23383 714.762 9.26401 711.284 9.26853ZM477.146 9.21952C476.711 9.22734 479.513 9.42091 481.231 9.34507C482.561 9.28623 478.773 9.18973 477.146 9.21952ZM27.892 76.755C25.2244 76.7548 21.4684 76.7549 20.7756 76.663C22.5633 76.6771 27.9471 76.6875 27.892 76.755ZM8.0579 45.1323C8.16598 48.2854 8.16568 55.4874 8.14787 60.086C8.00559 60.1708 8.09135 48.0914 8.0579 45.1323ZM144.23 76.7785C144.449 76.7843 151.139 76.8267 150.225 76.7315C148.89 76.5918 142.343 76.7267 144.23 76.7785ZM490.137 9.32224C493.128 9.25665 486.244 9.05508 483.087 9.21079C481.466 9.29052 489.632 9.33323 490.137 9.32224ZM664.28 9.21884C660.332 9.27396 670.117 9.37214 671.483 9.27256C669.665 9.26457 665.682 9.19933 664.28 9.21884ZM798.603 9.11813C786.162 8.83092 792.938 9.35488 795.145 9.30881C795.456 9.30224 798.907 9.12489 798.603 9.11813ZM86.8154 9.18863C85.0542 9.22854 91.62 9.3731 92.4697 9.27793C92.9947 9.21837 87.9416 9.1632 86.8154 9.18863ZM697.709 76.6952C698.234 76.6943 698.755 76.6934 699.271 76.6925C698.884 76.6972 698.375 76.6987 697.709 76.6952ZM628.445 8.83413C637.202 9.23964 636.282 8.92709 637.043 8.92879C638.687 8.93316 642.509 9.04281 645.608 9.02481C642.059 9.07046 638.509 9.11612 634.96 9.16177C637.764 9.19105 662.121 9.34033 662.631 9.27457C663.362 9.18093 655.698 9.21031 655.475 9.20206C655.153 9.19031 653.956 8.92997 653.245 8.92007C652.075 8.90424 631.709 8.89884 628.445 8.83413ZM772.587 9.16312C774.587 9.19407 775.156 9.29721 776.085 9.27256C776.402 9.26412 776.453 9.16574 777.534 9.14029C775.885 9.1479 774.236 9.15551 772.587 9.16312ZM612.763 9.1987C610.284 9.07848 621.399 9.12414 621.756 9.1376C623.657 9.21909 614.789 9.29691 612.763 9.1987ZM707.078 9.18125C706.672 9.17423 698.137 9.13669 698.206 9.2034C700.464 9.25426 711.876 9.26907 707.078 9.18125ZM778.869 9.13358C781.868 9.14505 787.537 9.24412 786.887 9.09598C786.882 9.09598 786.878 9.09598 786.873 9.09598C784.205 9.10851 781.537 9.12104 778.869 9.13358ZM500.377 9.00936C494.82 8.77342 497.453 9.07156 502.373 9.14768C503.864 9.04175 501.288 9.04776 500.377 9.00936ZM482.593 8.83345C481.047 8.791 465.115 8.83752 467.546 8.96237C468.41 9.00686 477.572 8.89465 477.994 8.90328C478.633 8.91607 475.711 9.05419 480.597 9.02682C480.311 8.98002 483.123 8.84764 482.593 8.83345ZM495.778 8.8583C490.255 8.67886 489.015 9.00981 493.168 9.01071C494.79 9.01129 496.566 8.88419 495.778 8.8583ZM518.335 8.8865C516.348 8.85511 511.055 8.80933 507.407 8.91939C512.289 8.92879 517.171 8.93819 522.053 8.94759C522.616 8.88524 520.073 8.91408 518.322 8.8865C518.326 8.8865 518.331 8.8865 518.335 8.8865ZM7.2099 11.9472C7.11605 16.3351 7.08009 6.22644 7.10315 5.79888C7.17969 4.52934 7.25182 9.98562 7.2099 11.9472ZM52.5421 6.18205C51.3229 6.14464 50.5259 6.02155 47.8424 6.08604C50.5416 6.1769 53.2409 6.26776 55.9401 6.35863C58.0377 6.15043 53.8747 6.22331 52.5421 6.18205ZM42.2348 5.42134C42.6161 5.41629 40.5332 5.09615 45.4592 5.30988C48.7874 5.4542 30.6884 5.59485 27.4213 5.45289C31.0312 5.38693 38.9526 5.46244 42.2348 5.42134ZM10.5317 4.03554C10.323 4.01001 17.1993 3.97256 17.9952 3.99056C22.1744 4.08543 11.6608 4.17232 10.5317 4.03554ZM32.4682 4.09664C29.2434 4.03447 36.3873 3.99439 38.5164 4.03017C38.7229 4.08976 32.9664 4.1057 32.4682 4.09664ZM2.57313 56.3809C2.35555 59.8705 2.82394 62.9919 2.72957 57.6226C2.72513 57.3665 2.58379 56.2322 2.57313 56.3809ZM17.2542 3.71259C20.479 3.77476 13.335 3.81484 11.206 3.77906C11.008 3.71954 16.7632 3.7035 17.2542 3.71259ZM2.0548 58.8376C1.89823 63.4721 2.42372 61.84 2.44489 61.2609C2.52852 58.8753 2.32227 50.6954 2.27099 49.0243C2.34985 61.2677 2.12858 56.6555 2.0548 58.8376ZM2.37036 80.2133C2.37173 80.3178 2.37312 80.4132 2.37454 80.5L2.38684 82.4572L4.31958 82.445C5.34997 82.4282 5.15636 82.4077 4.31958 82.3909L2.44063 82.4027L2.42867 80.5C2.46868 78.5075 2.48781 72.8688 2.38715 71.4281C2.39416 73.565 2.35416 78.9905 2.37036 80.2133ZM30.1283 82.6177C32.4402 82.6366 39.3159 82.6816 40.469 82.5989C37.9453 82.6139 31.104 82.5327 30.1283 82.6177ZM35.3621 82.8655C38.9759 82.9778 39.8423 82.6505 35.6759 82.748C35.514 82.7518 35.2296 82.8592 35.3621 82.8655ZM55.6764 82.9837C58.0472 83.1138 60.753 82.7968 56.9114 82.7883C55.7702 82.7863 55.4255 82.9687 55.6764 82.9837ZM1.48947 64.6388C1.43357 68.0334 1.66059 72.4069 1.68552 65.1595C1.72021 67.7052 1.7549 70.2509 1.78959 72.7966C1.91684 63.3032 1.60201 64 1.61502 61.2743C1.63352 57.4653 1.89332 57.7657 1.9749 58.5305C1.81573 55.4075 1.81319 42.1393 1.78288 34.4712C1.71608 41.2105 1.60028 52.147 1.55795 58.7976C1.5457 60.6965 1.61695 62.5391 1.60898 64.1582C1.59582 66.7539 1.49323 64.4485 1.48947 64.6255C1.48947 64.6299 1.48947 64.6344 1.48947 64.6388ZM82.3794 82.9884C89.3471 83.1358 84.9409 82.8174 81.0042 82.8742C80.8357 82.8786 82.206 82.9848 82.3794 82.9884ZM8.01495 2.74509C17.3239 2.87817 10.5575 3.05455 30.0315 2.78672C21.85 2.97632 29.5791 2.92307 27.9821 2.99955C26.701 3.06006 21.9006 3.00995 24.6909 3.13182C21.0233 2.99918 5.09992 3.03586 4.39002 3.01432C4.3967 3.01432 4.40338 3.01432 4.41005 3.01432C3.98368 3.00156 5.04447 2.70277 8.01495 2.74509ZM30.1617 83.4503C32.4857 83.8366 33.3971 83.2234 37.9657 83.5436C44.0484 83.0787 21.1633 83.5435 18.3924 83.1508C43.2462 83.1965 1.97188 82.7617 19.3204 83.3496C5.02866 83.1362 14.637 83.4224 12.431 83.4973C10.8636 83.5503 6.77126 83.5298 4.31958 83.5523L1.28661 83.5713L1.26731 80.5C1.25596 79.2602 1.23365 78.4399 1.18532 78.5778C1.18532 78.5822 1.18532 78.5867 1.18532 78.5911C1.18662 79.2274 1.18791 79.8637 1.18921 80.5L1.20901 83.6499L4.31958 83.6304C8.62775 83.6216 12.936 83.6128 17.2442 83.604C12.4045 83.2936 22.5088 83.3867 25.936 83.6396C27.3446 83.5765 28.7531 83.5134 30.1617 83.4503ZM1.66068 78.3575C1.6588 78.4865 1.66046 79.3349 1.66509 80.5L1.68188 83.1711L4.31958 83.1545C7.55596 83.1417 13.2352 83.106 12.7247 83.0602C11.9852 83.0397 7.57974 83.0424 4.31958 83.0623L1.7735 83.0783L1.7573 80.5C1.73861 77.4284 1.70472 75.3732 1.66068 78.3575ZM1.59287 31.0265C1.59211 34.8878 1.53156 40.8587 1.6486 42.9627C1.64938 39.1005 1.70997 33.1288 1.59287 31.0265ZM153.683 83.2489C158.605 83.1528 143.451 83.1244 147.835 83.2381C148.051 83.2435 153.441 83.2533 153.683 83.2489ZM41.357 83.3919C46.3612 83.5099 43.9963 83.1342 40.2888 83.2321C40.0743 83.2379 41.1258 83.3865 41.357 83.3919ZM15.5585 2.69943C15.8933 2.60736 29.3998 2.67203 31.7939 2.67123C30.4337 2.75681 15.1745 2.80498 15.5585 2.69943ZM1.24843 24.2306C0.917381 31.914 1.29976 42.3401 1.2914 43.4834C1.28289 44.6202 1.13818 42.837 1.13429 43.0962C1.12618 43.6871 1.13832 55.7949 1.14839 56.3809C1.15625 56.8003 1.35961 54.6096 1.42367 57.1086C1.30812 52.2337 1.38041 30.0985 1.35787 28.9503C1.33988 28.0603 1.12632 34.768 1.24843 24.2439C1.24843 24.2395 1.24843 24.235 1.24843 24.2306ZM1.24709 46.3406C1.33234 43.3159 1.343 51.7983 1.31155 53.8508C1.24115 58.4119 1.23699 46.7287 1.24709 46.3406ZM1.16854 66.7417C1.14942 67.7104 1.13205 76.4525 1.22695 77.1959C1.35006 73.0578 1.21309 64.5442 1.16854 66.7417ZM87.8401 83.6383C90.1107 83.6261 96.3544 83.6991 96.7122 83.6161C94.4394 83.6282 88.1969 83.5554 87.8401 83.6383ZM61.6412 1.97565C57.8692 1.90626 66.6085 1.87791 69.158 1.91119C69.2964 1.96651 61.9623 1.98161 61.6412 1.97565ZM42.2048 84.1848C43.5488 84.21 70.9755 84.1471 74.8224 84.1083C71.0592 84.0456 43.8786 84.0407 42.6454 84.0714C42.2852 84.0805 42.0334 84.1808 42.2048 84.1848ZM0.596492 59.0713C0.474375 56.5566 0.620838 54.9157 0.622677 54.5985C0.641363 51.489 0.61383 45.04 0.731446 46.4541C0.683993 51.9417 0.838999 64.0772 0.596492 59.0713ZM89.7894 84.1909C99.1023 84.1455 81.2146 84.0169 83.561 84.1445C83.7123 84.1523 88.8265 84.1956 89.7894 84.1909ZM39.1406 84.2204C37.0866 84.3191 9.65213 84.234 5.24789 84.2338C9.19317 84.0518 12.3723 84.1901 17.6714 84.1808C19.1012 84.1781 18.7195 84.1024 18.873 84.1022C21.3491 84.0987 19.4958 84.1862 21.0227 84.1875C21.987 84.1881 42.0313 84.0814 39.1406 84.2204ZM0.511894 57.636C0.441891 56.1021 0.41205 38.9724 0.430654 38.283C0.569014 33.1277 0.536264 56.3049 0.511894 57.636ZM41.6574 84.3822C38.7077 84.5937 25.0827 84.4521 34.4075 84.3466C35.2982 84.337 39.069 84.4287 41.6574 84.3822ZM88.7947 84.3923C89.253 84.3985 98.9612 84.4408 99.1355 84.3735C97.7326 84.3473 83.5806 84.3239 88.7947 84.3923ZM83.7612 84.6199C83.9954 84.6183 81.7191 84.4887 86.2713 84.5051C86.6505 84.5066 87.3583 84.6525 93.0806 84.5991C94.2417 84.5881 96.0409 84.4916 95.9111 84.4856C89.9522 84.2567 72.0063 84.6951 83.7612 84.6199ZM0.393726 57.3222C0.332168 58.2454 0.149459 56.0189 0.241987 54.0111C0.28194 53.1504 0.39159 54.7562 0.393726 57.3222ZM119.583 84.4514C113.94 84.5622 131.658 84.5831 132.561 84.5548C131.992 84.4857 120.148 84.4405 119.583 84.4514ZM70.4732 1.12027C70.4687 1.12027 70.4643 1.12027 70.4598 1.12027C75.2078 1.14538 72.2669 1.23756 72.4892 1.24045C82.6025 1.37585 79.92 1.16707 81.5015 1.14243C84.8926 1.08914 84.3462 1.34303 90.0664 1.23777C80.611 1.39322 89.2178 1.32805 89.4857 1.41838C90.5453 1.78699 76.8966 1.24577 72.1821 1.32304C71.5253 1.33374 76.3752 1.45138 74.6922 1.48485C69.2204 1.59329 52.2545 1.02426 70.4732 1.12027ZM0.225873 52.4623C0.117598 50.2603 0.222615 33.553 0.311813 37.9826C0.326115 38.695 0.383691 55.6994 0.225873 52.4623ZM756.742 84.7535C752.727 84.8472 762.033 84.9574 763.759 84.8844C764.615 84.8481 758.506 84.7124 756.742 84.7535ZM808.974 62.8286C808.955 58.0572 808.564 53.0274 808.625 58.9634C808.631 59.5942 808.92 63.3755 808.974 62.8286ZM508.685 84.9536C513.667 85.0932 513.371 84.8338 509.713 84.8374C508.422 84.8387 508.528 84.9492 508.685 84.9536ZM698.837 84.92C699.336 84.9291 705.095 84.9125 704.885 84.8529C702.756 84.8171 695.612 84.8578 698.837 84.92ZM507.103 84.9905C510.057 84.9437 504.973 84.7561 501.362 84.9395C503.196 84.9244 506.799 84.9953 507.103 84.9905ZM51.9514 84.9556C54.4248 84.8491 61.4233 84.8812 65.443 84.8629C65.8765 85.001 54.8234 84.9306 51.9514 84.9556ZM801.737 84.9972C806.254 84.8999 796.577 84.8203 797.464 84.9489C797.588 84.9559 801.559 85.0014 801.737 84.9972ZM347.947 85.0046C351.23 84.9223 340.805 84.8116 343.674 84.9563C343.816 84.9622 347.767 85.0092 347.947 85.0046ZM302.425 84.9569C304.916 84.9847 315.538 84.9762 311.404 84.8958C310.762 84.8835 302.612 84.8815 302.425 84.9569ZM81.7819 1.04306C80.4397 0.901271 88.2302 0.935021 89.3455 0.959804C89.7836 0.97011 83.5324 1.22753 81.7819 1.04306ZM541.043 84.9757C543.62 84.958 550.306 84.9917 551.483 84.9173C548.33 84.9327 540.195 84.8276 541.043 84.9757ZM781.142 84.9979C785.075 85.152 791.796 85.1368 790.134 84.9355C782.711 84.9489 791.052 85.1164 781.142 84.9979ZM490.501 85.1563C492.568 85.1681 494.152 84.9748 493.919 84.9657C491.679 84.879 488.447 85.0811 490.501 85.1563ZM645.625 84.9972C645.744 85.0798 652.37 85.0423 651.486 84.9892C651.196 84.9713 645.528 84.9304 645.625 84.9972ZM138.736 85.0026C141.773 85.078 132.5 85.1517 129.757 85.0637C128.424 84.9368 138.352 84.9939 138.736 85.0026ZM433.176 85.108C432.868 85.2306 443.225 85.1613 439.144 85.0597C438.123 85.0342 433.284 85.067 433.176 85.108ZM334.021 85.2551C340.969 85.1088 311.795 85.005 319.461 85.1872C320.01 85.2002 333.416 85.2674 334.021 85.2551ZM286.377 85.1637C287.575 85.1798 286.978 85.5918 282.017 85.433C281.366 85.4124 284.412 85.3035 283.88 85.2785C283.567 85.2644 272.781 85.2065 272.284 85.2161C271.75 85.227 272.379 85.3591 271.837 85.3739C271.226 85.3904 264.586 85.2744 261.109 85.2732C254.556 85.271 253.849 85.3809 253.312 85.3813C251.746 85.382 249.115 85.304 245.942 85.3041C229.946 85.3049 205.483 85.3981 192.803 85.1651C204.087 85.2587 214.84 85.1594 226.068 85.1288C222.78 85.3582 242.586 84.9521 231.001 85.2168C236.336 85.1594 282.448 85.1134 286.363 85.1637C286.368 85.1637 286.372 85.1637 286.377 85.1637ZM809.089 43.9964C809.23 46.9277 809.198 31.8877 809.036 30.6115C809.013 32.5969 809.073 43.6331 809.089 43.9964ZM771.436 85.6129C770.039 85.6372 768.713 85.9122 761.389 85.7727C761.382 85.7727 761.375 85.7727 761.369 85.7727C759.227 85.732 761.667 85.665 761.275 85.6411C761.132 85.6314 754.453 85.4946 760 85.4726C768.46 85.4388 760.797 85.6771 765.307 85.6801C765.859 85.6803 774.396 85.5314 773.899 85.4988C773.848 85.495 771.279 85.5265 770.855 85.5129C769.253 85.4618 770.033 85.376 769.807 85.3719C769.068 85.3614 755.568 85.5077 753.605 85.3799C752.967 85.3387 775.125 85.2437 775.989 85.2651C776.535 85.2786 776.304 85.517 776.87 85.5404C777.161 85.5521 786.073 85.4628 787.23 85.4847C787.566 85.491 787.823 85.4978 788.011 85.5035C786.663 85.4297 794.734 85.435 794.487 85.5182C794.347 85.5509 788.791 85.532 788.592 85.5263C788.505 85.5239 788.429 85.5205 788.359 85.5182C789.509 85.6081 770.7 85.6041 774.76 85.7378C769.308 85.8111 775.534 85.5416 771.436 85.6129ZM745.227 85.7599C745.79 85.7349 746.353 85.7098 746.916 85.6848C737.37 85.7461 726.356 85.6254 715.359 85.6263C712.569 85.6264 715.779 85.7797 712.122 85.7378C709.192 85.7042 705.949 85.562 707.542 85.5303C707.931 85.5224 713.896 85.615 716.882 85.6055C725.696 85.5774 723.469 85.4459 723.984 85.4424C724.553 85.4386 730.101 85.5311 733.13 85.527C740.747 85.5163 744.226 85.4356 754.633 85.5411C748.627 85.6277 751.917 85.8159 745.227 85.7599ZM389.43 85.48C389.067 85.5627 382.821 85.4893 380.551 85.5015C380.908 85.4185 387.159 85.4921 389.43 85.48ZM363.371 0.412602C361.452 0.548389 375.833 0.582012 372.043 0.469001C371.204 0.44392 365.178 0.413568 363.371 0.412602ZM427.972 0.495186C429.896 0.457644 422.15 0.35988 422.164 0.464972C422.176 0.498673 427.724 0.500069 427.972 0.495186ZM621.839 85.6263C621.475 85.6306 616.184 85.6003 616.018 85.5934C612.512 85.4493 629.929 85.5326 621.839 85.6263ZM506.506 0.328005C499.801 0.417007 519.982 0.455583 513.816 0.342104C513.508 0.336577 506.828 0.323679 506.506 0.328005ZM534.557 0.303163C532.95 0.307932 525.812 0.263741 525.718 0.305177C525.576 0.372024 533.746 0.417699 534.557 0.303163ZM489.105 85.6693C489.88 85.8223 480.468 85.7064 477.196 85.7257C476.419 85.5726 485.834 85.6886 489.105 85.6693ZM548.513 85.7821C508.834 85.9027 517.582 85.5758 550.876 85.7076C550.924 85.8057 551.017 85.7745 548.513 85.7821ZM497.704 85.764C499.146 85.666 503.652 85.695 506.696 85.7029C506.148 85.771 499.9 85.7464 497.704 85.764ZM346.248 0.202451C348.736 0.0786352 359.756 0.231278 357.797 0.282349C357.341 0.293377 345.334 0.27054 346.248 0.202451ZM618.515 85.7573C619.439 85.9061 607.524 85.8454 606.612 85.8123C602.935 85.6794 617.55 85.7901 618.515 85.7573ZM432.789 85.8002C430.685 85.9168 424.709 85.8568 420.866 85.8553C422.616 85.7556 429.528 85.7981 432.789 85.8002ZM460.533 85.8915C460.292 85.896 454.932 85.8855 454.692 85.8801C450.3 85.7663 465.463 85.7954 460.533 85.8915ZM63.8909 0.00102711C64.0695 -0.00272894 68.1287 0.00470257 68.2702 0.00908375C71.8933 0.120981 59.7103 0.0981164 63.8909 0.00102711Z" fill="#2D2D2D"/>
</svg>
