<?xml version="1.0" standalone="no"?>
<!DOCTYPE svg PUBLIC "-//W3C//DTD SVG 20010904//EN"
 "http://www.w3.org/TR/2001/REC-SVG-20010904/DTD/svg10.dtd">
<svg version="1.0" xmlns="http://www.w3.org/2000/svg"
 width="221.000000pt" height="34.000000pt" viewBox="0 0 221.000000 34.000000"
 preserveAspectRatio="xMidYMid meet">

<g transform="translate(0.000000,34.000000) scale(0.100000,-0.100000)"
fill="#000000" stroke="none">
<path d="M29 311 c-29 -29 -38 -76 -23 -116 9 -21 56 -45 92 -45 33 0 78 31
87 60 8 26 25 26 25 1 0 -27 51 -61 93 -61 36 0 87 39 87 66 0 8 5 14 10 14 6
0 10 -7 10 -15 0 -29 50 -65 90 -65 41 0 90 31 90 58 0 12 5 9 17 -10 34 -54
110 -65 155 -21 15 15 28 33 28 40 0 7 5 13 10 13 6 0 10 -7 10 -15 0 -29 50
-65 90 -65 40 0 90 36 90 65 0 24 17 17 24 -10 11 -44 90 -69 137 -44 11 5 29
24 39 42 l19 31 11 -30 c21 -59 108 -74 152 -27 14 16 28 35 31 43 4 12 6 11
6 -3 2 -30 50 -67 88 -67 40 0 89 31 98 62 7 19 8 19 22 -9 27 -57 101 -70
152 -27 17 14 31 32 31 40 0 8 5 14 10 14 6 0 10 -7 10 -15 0 -9 11 -27 25
-40 34 -35 93 -34 129 1 14 15 26 33 26 40 0 8 5 14 10 14 6 0 10 -7 10 -15 0
-9 12 -27 26 -40 48 -44 122 -28 153 33 20 38 -2 97 -43 116 -19 9 -44 16 -56
16 -25 0 -80 -51 -80 -74 0 -25 -17 -19 -24 9 -7 29 -59 65 -93 65 -29 0 -79
-44 -87 -75 -4 -14 -11 -23 -16 -20 -6 4 -8 10 -5 15 19 31 -58 86 -107 76
-34 -7 -78 -51 -78 -78 0 -11 -4 -17 -10 -13 -5 3 -7 11 -4 18 2 7 -9 26 -26
42 -40 39 -97 41 -134 6 -14 -14 -26 -32 -26 -40 -1 -10 -7 -5 -16 11 -17 31
-61 58 -97 58 -30 0 -72 -38 -81 -73 -3 -16 -11 -25 -16 -22 -6 4 -8 10 -5 15
17 27 -51 80 -101 80 -28 0 -84 -49 -84 -74 0 -9 -4 -16 -10 -16 -5 0 -10 6
-10 14 0 27 -44 67 -81 72 -28 5 -41 1 -66 -20 -17 -14 -34 -37 -37 -51 -4
-14 -11 -23 -16 -20 -6 4 -8 10 -5 15 17 27 -49 80 -98 80 -27 0 -73 -38 -87
-72 -8 -22 -9 -22 -9 -2 -1 29 -42 64 -82 70 -41 7 -82 -21 -104 -70 -11 -26
-13 -28 -14 -9 -1 12 -12 35 -25 50 -20 23 -33 28 -68 28 -49 0 -81 -24 -92
-70 -7 -28 -18 -27 -22 1 -5 33 -15 45 -49 59 -50 22 -73 19 -106 -14z m76
-20 c3 -11 20 -25 38 -31 31 -12 31 -13 8 -19 -13 -3 -32 -22 -42 -41 -11 -19
-20 -31 -20 -27 -1 4 -2 12 -3 19 0 7 -15 22 -32 33 l-31 21 28 13 c17 8 29
20 29 32 0 25 17 25 25 0z m244 -33 c19 -7 22 -12 11 -15 -26 -9 -50 -35 -50
-55 0 -10 -4 -18 -10 -18 -5 0 -10 7 -10 15 0 8 -14 24 -30 37 l-31 22 25 13
c14 7 28 22 31 34 l7 21 15 -22 c8 -12 27 -26 42 -32z m206 -3 c19 -7 19 -7
-3 -16 -13 -5 -29 -23 -36 -41 l-14 -32 -16 32 c-9 17 -25 34 -37 37 -21 7
-21 7 2 19 13 6 28 21 34 33 l9 21 21 -22 c11 -13 29 -26 40 -31z m194 3 c19
-7 22 -12 11 -15 -23 -8 -51 -36 -61 -58 -6 -16 -8 -17 -8 -3 -1 9 -15 28 -32
41 -31 24 -31 25 -10 32 12 4 27 18 32 33 l10 25 15 -22 c9 -12 28 -27 43 -33z
m206 -3 c19 -7 19 -7 -3 -16 -13 -5 -29 -22 -35 -39 -14 -37 -23 -38 -31 -5
-4 15 -18 30 -34 36 l-27 11 27 14 c15 8 30 23 33 35 7 20 7 20 28 -4 12 -13
31 -27 42 -32z m163 30 c7 -15 20 -25 32 -25 25 0 26 -16 2 -22 -10 -3 -25
-20 -34 -38 l-16 -33 -16 31 c-9 17 -25 34 -37 37 -21 7 -21 7 2 19 13 6 28
21 34 34 13 28 19 28 33 -3z m240 -26 l26 -10 -24 -12 c-14 -7 -31 -26 -39
-42 -13 -27 -15 -28 -22 -9 -4 12 -20 30 -35 41 -28 20 -28 20 -5 28 12 4 27
18 32 33 l10 25 15 -22 c9 -12 28 -27 42 -32z m197 -3 c19 -7 18 -8 -7 -22
-15 -8 -31 -26 -34 -39 -3 -14 -10 -22 -16 -19 -5 3 -7 8 -4 12 7 7 -41 52
-57 52 -7 1 0 7 15 15 15 8 30 24 33 36 7 20 7 20 28 -4 12 -13 31 -27 42 -31z
m204 2 c19 -7 22 -12 11 -15 -23 -8 -51 -36 -61 -58 -6 -16 -8 -17 -8 -3 -1 9
-15 27 -31 40 l-31 24 25 13 c13 8 27 23 30 35 l6 21 16 -23 c9 -13 28 -28 43
-34z m206 -3 c19 -7 19 -7 -3 -16 -13 -5 -29 -22 -35 -39 -14 -37 -19 -37 -35
-1 -7 16 -23 32 -35 35 -22 6 -22 7 5 21 15 8 30 24 33 36 7 20 7 20 28 -4 12
-13 31 -27 42 -32z m160 34 c4 -11 19 -25 33 -31 l27 -10 -23 -9 c-13 -5 -29
-23 -36 -41 l-14 -32 -16 32 c-9 17 -25 34 -37 37 -21 7 -21 7 2 19 13 6 28
21 34 34 12 27 22 28 30 1z"/>
<path d="M179 46 c-2 -2 -26 -5 -54 -7 -58 -3 -75 -8 -75 -20 0 -12 147 -12
154 0 6 9 -18 34 -25 27z"/>
<path d="M1443 37 c-11 -19 16 -28 78 -25 49 2 64 7 64 18 0 12 -15 15 -68 16
-37 0 -71 -4 -74 -9z"/>
<path d="M1735 39 c-10 -15 -6 -17 60 -20 50 -2 60 0 63 14 3 14 -6 17 -57 17
-33 0 -63 -5 -66 -11z"/>
<path d="M2037 43 c-16 -16 -2 -21 73 -27 85 -8 102 -4 93 19 -4 11 -24 15
-82 15 -43 0 -81 -3 -84 -7z"/>
<path d="M393 32 c-12 -2 -27 -10 -33 -18 -11 -12 -1 -14 63 -14 64 0 75 2 71
15 -4 8 -9 15 -13 16 -19 3 -69 4 -88 1z"/>
<path d="M1208 33 c-32 -2 -58 -8 -58 -12 0 -12 101 -24 123 -15 18 7 19 27 1
29 -5 1 -35 -1 -66 -2z"/>
<path d="M675 23 c-72 -8 -63 -23 13 -23 57 0 72 3 72 15 0 15 -5 16 -85 8z"/>
<path d="M914 15 c-17 -14 -14 -15 40 -13 37 2 61 8 64 16 6 18 -79 16 -104
-3z"/>
</g>
</svg>
